<?xml version="1.0"?>
<svg xmlns="http://www.w3.org/2000/svg" xmlns:xlink="http://www.w3.org/1999/xlink" viewBox="0 0 1002.400000 216.000000" width="501.200000mm" height="108.000000mm" version="1.1">
<defs>
   <filter id="filter" filterRes="18" x="0" y="0">
     <feGaussianBlur in="SourceGraphic" stdDeviation="1.55" result="blur"/>
     <feOffset in="blur" dx="3" dy="3"/>
   </filter>
</defs>
<rect x="1.000000" y="1.000000" width="1001.400000" height="215.000000" rx="0.1" ry="0.1" style="stroke:none;fill:#aaaaaa;;filter:url(#filter);"/>
<rect x="0.000000" y="0.000000" width="1001.400000" height="215.000000" rx="0" ry="0" style="stroke:none;fill:#ffffff;"/>
<text x="10.000000" y="7.000000" font-family="Arial" font-size="7"></text>
<rect x="51.000000" y="101.000000" width="154.800000" height="24.000000" rx="0.1" ry="0.1" style="stroke:none;fill:#aaaaaa;;filter:url(#filter);"/>
<rect x="50.000000" y="100.000000" width="154.800000" height="24.000000" rx="0" ry="0" style="stroke:none;fill:#477881;"/>
<text x="127.400000" y="114.000000" font-family="Arial" font-size="7" text-anchor="middle" fill="#FFFFFF">vslider(Threshold, 0, -72, 0, 0.1)</text>
<circle cx="52.000000" cy="102.000000" r="1"/>
<line x1="41.000000" y1="91.000000" x2="41.000000" y2="133.000000"  style="stroke: black; stroke-linecap:round; stroke-width:0.25; stroke-dasharray:3,3;"/>
<line x1="41.000000" y1="133.000000" x2="213.800000" y2="133.000000"  style="stroke: black; stroke-linecap:round; stroke-width:0.25; stroke-dasharray:3,3;"/>
<line x1="213.800000" y1="133.000000" x2="213.800000" y2="91.000000"  style="stroke: black; stroke-linecap:round; stroke-width:0.25; stroke-dasharray:3,3;"/>
<line x1="41.000000" y1="91.000000" x2="46.000000" y2="91.000000"  style="stroke: black; stroke-linecap:round; stroke-width:0.25; stroke-dasharray:3,3;"/>
<line x1="55.675000" y1="91.000000" x2="213.800000" y2="91.000000"  style="stroke: black; stroke-linecap:round; stroke-width:0.25; stroke-dasharray:3,3;"/>
<text x="46.000000" y="93.000000" font-family="Arial" font-size="7">T</text>
<rect x="231.800000" y="97.000000" width="24.000000" height="24.000000" rx="0.1" ry="0.1" style="stroke:none;fill:#aaaaaa;;filter:url(#filter);"/>
<rect x="230.800000" y="96.000000" width="24.000000" height="24.000000" rx="0" ry="0" style="stroke:none;fill:#4B71A1;"/>
<text x="242.800000" y="110.000000" font-family="Arial" font-size="7" text-anchor="middle" fill="#FFFFFF">-</text>
<circle cx="232.800000" cy="98.000000" r="1"/>
<line x1="227.800000" y1="103.000000" x2="230.800000" y2="104.000000"  transform="rotate(0.000000,230.800000,104.000000)" style="stroke: black; stroke-width:0.25;"/>
<line x1="227.800000" y1="105.000000" x2="230.800000" y2="104.000000"  transform="rotate(0.000000,230.800000,104.000000)" style="stroke: black; stroke-width:0.25;"/>
<line x1="227.800000" y1="111.000000" x2="230.800000" y2="112.000000"  transform="rotate(0.000000,230.800000,112.000000)" style="stroke: black; stroke-width:0.25;"/>
<line x1="227.800000" y1="113.000000" x2="230.800000" y2="112.000000"  transform="rotate(0.000000,230.800000,112.000000)" style="stroke: black; stroke-width:0.25;"/>
<rect x="322.800000" y="97.000000" width="24.000000" height="24.000000" rx="0.1" ry="0.1" style="stroke:none;fill:#aaaaaa;;filter:url(#filter);"/>
<rect x="321.800000" y="96.000000" width="24.000000" height="24.000000" rx="0" ry="0" style="stroke:none;fill:#f44800;"/>
<text x="333.800000" y="110.000000" font-family="Arial" font-size="7" text-anchor="middle" fill="#FFFFFF">0</text>
<circle cx="323.800000" cy="98.000000" r="1"/>
<rect x="362.800000" y="93.000000" width="24.000000" height="24.000000" rx="0.1" ry="0.1" style="stroke:none;fill:#aaaaaa;;filter:url(#filter);"/>
<rect x="361.800000" y="92.000000" width="24.000000" height="24.000000" rx="0" ry="0" style="stroke:none;fill:#4B71A1;"/>
<text x="373.800000" y="106.000000" font-family="Arial" font-size="7" text-anchor="middle" fill="#FFFFFF">&gt;=</text>
<circle cx="363.800000" cy="94.000000" r="1"/>
<line x1="358.800000" y1="99.000000" x2="361.800000" y2="100.000000"  transform="rotate(0.000000,361.800000,100.000000)" style="stroke: black; stroke-width:0.25;"/>
<line x1="358.800000" y1="101.000000" x2="361.800000" y2="100.000000"  transform="rotate(0.000000,361.800000,100.000000)" style="stroke: black; stroke-width:0.25;"/>
<line x1="358.800000" y1="107.000000" x2="361.800000" y2="108.000000"  transform="rotate(0.000000,361.800000,108.000000)" style="stroke: black; stroke-width:0.25;"/>
<line x1="358.800000" y1="109.000000" x2="361.800000" y2="108.000000"  transform="rotate(0.000000,361.800000,108.000000)" style="stroke: black; stroke-width:0.25;"/>
<rect x="402.800000" y="97.000000" width="24.000000" height="24.000000" rx="0.1" ry="0.1" style="stroke:none;fill:#aaaaaa;;filter:url(#filter);"/>
<rect x="401.800000" y="96.000000" width="24.000000" height="24.000000" rx="0" ry="0" style="stroke:none;fill:#4B71A1;"/>
<text x="413.800000" y="110.000000" font-family="Arial" font-size="7" text-anchor="middle" fill="#FFFFFF">*</text>
<circle cx="403.800000" cy="98.000000" r="1"/>
<line x1="398.800000" y1="103.000000" x2="401.800000" y2="104.000000"  transform="rotate(0.000000,401.800000,104.000000)" style="stroke: black; stroke-width:0.25;"/>
<line x1="398.800000" y1="105.000000" x2="401.800000" y2="104.000000"  transform="rotate(0.000000,401.800000,104.000000)" style="stroke: black; stroke-width:0.25;"/>
<line x1="398.800000" y1="111.000000" x2="401.800000" y2="112.000000"  transform="rotate(0.000000,401.800000,112.000000)" style="stroke: black; stroke-width:0.25;"/>
<line x1="398.800000" y1="113.000000" x2="401.800000" y2="112.000000"  transform="rotate(0.000000,401.800000,112.000000)" style="stroke: black; stroke-width:0.25;"/>
<rect x="535.300000" y="43.000000" width="24.000000" height="24.000000" rx="0.1" ry="0.1" style="stroke:none;fill:#aaaaaa;;filter:url(#filter);"/>
<rect x="534.300000" y="42.000000" width="24.000000" height="24.000000" rx="0" ry="0" style="stroke:none;fill:#f44800;"/>
<text x="546.300000" y="56.000000" font-family="Arial" font-size="7" text-anchor="middle" fill="#FFFFFF">1</text>
<circle cx="536.300000" cy="44.000000" r="1"/>
<rect x="515.300000" y="75.000000" width="24.000000" height="24.000000" rx="0.1" ry="0.1" style="stroke:none;fill:#aaaaaa;;filter:url(#filter);"/>
<rect x="514.300000" y="74.000000" width="24.000000" height="24.000000" rx="0" ry="0" style="stroke:none;fill:#f44800;"/>
<text x="526.300000" y="88.000000" font-family="Arial" font-size="7" text-anchor="middle" fill="#FFFFFF">1</text>
<circle cx="516.300000" cy="76.000000" r="1"/>
<rect x="462.800000" y="117.000000" width="129.000000" height="24.000000" rx="0.1" ry="0.1" style="stroke:none;fill:#aaaaaa;;filter:url(#filter);"/>
<rect x="461.800000" y="116.000000" width="129.000000" height="24.000000" rx="0" ry="0" style="stroke:none;fill:#477881;"/>
<text x="526.300000" y="130.000000" font-family="Arial" font-size="7" text-anchor="middle" fill="#FFFFFF">vslider(Ratio, 1, 1, 30, 0.1)</text>
<circle cx="463.800000" cy="118.000000" r="1"/>
<line x1="452.800000" y1="107.000000" x2="452.800000" y2="149.000000"  style="stroke: black; stroke-linecap:round; stroke-width:0.25; stroke-dasharray:3,3;"/>
<line x1="452.800000" y1="149.000000" x2="599.800000" y2="149.000000"  style="stroke: black; stroke-linecap:round; stroke-width:0.25; stroke-dasharray:3,3;"/>
<line x1="599.800000" y1="149.000000" x2="599.800000" y2="107.000000"  style="stroke: black; stroke-linecap:round; stroke-width:0.25; stroke-dasharray:3,3;"/>
<line x1="452.800000" y1="107.000000" x2="457.800000" y2="107.000000"  style="stroke: black; stroke-linecap:round; stroke-width:0.25; stroke-dasharray:3,3;"/>
<line x1="467.475000" y1="107.000000" x2="599.800000" y2="107.000000"  style="stroke: black; stroke-linecap:round; stroke-width:0.25; stroke-dasharray:3,3;"/>
<text x="457.800000" y="109.000000" font-family="Arial" font-size="7">R</text>
<rect x="617.800000" y="101.000000" width="24.000000" height="24.000000" rx="0.1" ry="0.1" style="stroke:none;fill:#aaaaaa;;filter:url(#filter);"/>
<rect x="616.800000" y="100.000000" width="24.000000" height="24.000000" rx="0" ry="0" style="stroke:none;fill:#4B71A1;"/>
<text x="628.800000" y="114.000000" font-family="Arial" font-size="7" text-anchor="middle" fill="#FFFFFF">/</text>
<circle cx="618.800000" cy="102.000000" r="1"/>
<line x1="613.800000" y1="107.000000" x2="616.800000" y2="108.000000"  transform="rotate(0.000000,616.800000,108.000000)" style="stroke: black; stroke-width:0.25;"/>
<line x1="613.800000" y1="109.000000" x2="616.800000" y2="108.000000"  transform="rotate(0.000000,616.800000,108.000000)" style="stroke: black; stroke-width:0.25;"/>
<line x1="613.800000" y1="115.000000" x2="616.800000" y2="116.000000"  transform="rotate(0.000000,616.800000,116.000000)" style="stroke: black; stroke-width:0.25;"/>
<line x1="613.800000" y1="117.000000" x2="616.800000" y2="116.000000"  transform="rotate(0.000000,616.800000,116.000000)" style="stroke: black; stroke-width:0.25;"/>
<rect x="657.800000" y="85.000000" width="24.000000" height="24.000000" rx="0.1" ry="0.1" style="stroke:none;fill:#aaaaaa;;filter:url(#filter);"/>
<rect x="656.800000" y="84.000000" width="24.000000" height="24.000000" rx="0" ry="0" style="stroke:none;fill:#4B71A1;"/>
<text x="668.800000" y="98.000000" font-family="Arial" font-size="7" text-anchor="middle" fill="#FFFFFF">-</text>
<circle cx="658.800000" cy="86.000000" r="1"/>
<line x1="653.800000" y1="91.000000" x2="656.800000" y2="92.000000"  transform="rotate(0.000000,656.800000,92.000000)" style="stroke: black; stroke-width:0.25;"/>
<line x1="653.800000" y1="93.000000" x2="656.800000" y2="92.000000"  transform="rotate(0.000000,656.800000,92.000000)" style="stroke: black; stroke-width:0.25;"/>
<line x1="653.800000" y1="99.000000" x2="656.800000" y2="100.000000"  transform="rotate(0.000000,656.800000,100.000000)" style="stroke: black; stroke-width:0.25;"/>
<line x1="653.800000" y1="101.000000" x2="656.800000" y2="100.000000"  transform="rotate(0.000000,656.800000,100.000000)" style="stroke: black; stroke-width:0.25;"/>
<rect x="555.300000" y="159.000000" width="24.000000" height="24.000000" rx="0.1" ry="0.1" style="stroke:none;fill:#aaaaaa;;filter:url(#filter);"/>
<rect x="554.300000" y="158.000000" width="24.000000" height="24.000000" rx="0" ry="0" style="stroke:none;fill:#f44800;"/>
<text x="566.300000" y="172.000000" font-family="Arial" font-size="7" text-anchor="middle" fill="#FFFFFF">-1</text>
<circle cx="556.300000" cy="160.000000" r="1"/>
<rect x="697.800000" y="101.000000" width="24.000000" height="24.000000" rx="0.1" ry="0.1" style="stroke:none;fill:#aaaaaa;;filter:url(#filter);"/>
<rect x="696.800000" y="100.000000" width="24.000000" height="24.000000" rx="0" ry="0" style="stroke:none;fill:#4B71A1;"/>
<text x="708.800000" y="114.000000" font-family="Arial" font-size="7" text-anchor="middle" fill="#FFFFFF">*</text>
<circle cx="698.800000" cy="102.000000" r="1"/>
<line x1="693.800000" y1="107.000000" x2="696.800000" y2="108.000000"  transform="rotate(0.000000,696.800000,108.000000)" style="stroke: black; stroke-width:0.25;"/>
<line x1="693.800000" y1="109.000000" x2="696.800000" y2="108.000000"  transform="rotate(0.000000,696.800000,108.000000)" style="stroke: black; stroke-width:0.25;"/>
<line x1="693.800000" y1="115.000000" x2="696.800000" y2="116.000000"  transform="rotate(0.000000,696.800000,116.000000)" style="stroke: black; stroke-width:0.25;"/>
<line x1="693.800000" y1="117.000000" x2="696.800000" y2="116.000000"  transform="rotate(0.000000,696.800000,116.000000)" style="stroke: black; stroke-width:0.25;"/>
<rect x="729.800000" y="101.000000" width="25.800000" height="24.000000" rx="0.1" ry="0.1" style="stroke:none;fill:#aaaaaa;;filter:url(#filter);"/>
<rect x="728.800000" y="100.000000" width="25.800000" height="24.000000" rx="0" ry="0" style="stroke:none;fill:#4B71A1;"/>
<text x="741.700000" y="114.000000" font-family="Arial" font-size="7" text-anchor="middle" fill="#FFFFFF">float</text>
<circle cx="730.800000" cy="102.000000" r="1"/>
<line x1="725.800000" y1="111.000000" x2="728.800000" y2="112.000000"  transform="rotate(0.000000,728.800000,112.000000)" style="stroke: black; stroke-width:0.25;"/>
<line x1="725.800000" y1="113.000000" x2="728.800000" y2="112.000000"  transform="rotate(0.000000,728.800000,112.000000)" style="stroke: black; stroke-width:0.25;"/>
<line x1="442.800000" y1="33.000000" x2="442.800000" y2="191.000000"  style="stroke: black; stroke-linecap:round; stroke-width:0.25; stroke-dasharray:3,3;"/>
<line x1="442.800000" y1="191.000000" x2="763.600000" y2="191.000000"  style="stroke: black; stroke-linecap:round; stroke-width:0.25; stroke-dasharray:3,3;"/>
<line x1="763.600000" y1="191.000000" x2="763.600000" y2="33.000000"  style="stroke: black; stroke-linecap:round; stroke-width:0.25; stroke-dasharray:3,3;"/>
<line x1="442.800000" y1="33.000000" x2="447.800000" y2="33.000000"  style="stroke: black; stroke-linecap:round; stroke-width:0.25; stroke-dasharray:3,3;"/>
<line x1="457.475000" y1="33.000000" x2="763.600000" y2="33.000000"  style="stroke: black; stroke-linecap:round; stroke-width:0.25; stroke-dasharray:3,3;"/>
<text x="447.800000" y="35.000000" font-family="Arial" font-size="7">S</text>
<rect x="781.600000" y="97.000000" width="24.000000" height="24.000000" rx="0.1" ry="0.1" style="stroke:none;fill:#aaaaaa;;filter:url(#filter);"/>
<rect x="780.600000" y="96.000000" width="24.000000" height="24.000000" rx="0" ry="0" style="stroke:none;fill:#4B71A1;"/>
<text x="792.600000" y="110.000000" font-family="Arial" font-size="7" text-anchor="middle" fill="#FFFFFF">*</text>
<circle cx="782.600000" cy="98.000000" r="1"/>
<line x1="777.600000" y1="103.000000" x2="780.600000" y2="104.000000"  transform="rotate(0.000000,780.600000,104.000000)" style="stroke: black; stroke-width:0.25;"/>
<line x1="777.600000" y1="105.000000" x2="780.600000" y2="104.000000"  transform="rotate(0.000000,780.600000,104.000000)" style="stroke: black; stroke-width:0.25;"/>
<line x1="777.600000" y1="111.000000" x2="780.600000" y2="112.000000"  transform="rotate(0.000000,780.600000,112.000000)" style="stroke: black; stroke-width:0.25;"/>
<line x1="777.600000" y1="113.000000" x2="780.600000" y2="112.000000"  transform="rotate(0.000000,780.600000,112.000000)" style="stroke: black; stroke-width:0.25;"/>
<rect x="823.600000" y="97.000000" width="24.000000" height="24.000000" rx="0.1" ry="0.1" style="stroke:none;fill:#aaaaaa;;filter:url(#filter);"/>
<rect x="822.600000" y="96.000000" width="24.000000" height="24.000000" rx="0" ry="0" style="stroke:none;fill:#47945E;"/>
<text x="834.600000" y="110.000000" font-family="Arial" font-size="7" text-anchor="middle" fill="#FFFFFF">x</text>
<circle cx="824.600000" cy="98.000000" r="1"/>
<line x1="819.600000" y1="107.000000" x2="822.600000" y2="108.000000"  transform="rotate(0.000000,822.600000,108.000000)" style="stroke: black; stroke-width:0.25;"/>
<line x1="819.600000" y1="109.000000" x2="822.600000" y2="108.000000"  transform="rotate(0.000000,822.600000,108.000000)" style="stroke: black; stroke-width:0.25;"/>
<rect x="875.600000" y="65.000000" width="24.000000" height="24.000000" rx="0.1" ry="0.1" style="stroke:none;fill:#aaaaaa;;filter:url(#filter);"/>
<rect x="874.600000" y="64.000000" width="24.000000" height="24.000000" rx="0" ry="0" style="stroke:none;fill:#f44800;"/>
<text x="886.600000" y="78.000000" font-family="Arial" font-size="7" text-anchor="middle" fill="#FFFFFF">10</text>
<circle cx="876.600000" cy="66.000000" r="1"/>
<rect x="855.600000" y="97.000000" width="24.000000" height="24.000000" rx="0.1" ry="0.1" style="stroke:none;fill:#aaaaaa;;filter:url(#filter);"/>
<rect x="854.600000" y="96.000000" width="24.000000" height="24.000000" rx="0" ry="0" style="stroke:none;fill:#47945E;"/>
<text x="866.600000" y="110.000000" font-family="Arial" font-size="7" text-anchor="middle" fill="#FFFFFF">x</text>
<circle cx="856.600000" cy="98.000000" r="1"/>
<rect x="855.600000" y="129.000000" width="24.000000" height="24.000000" rx="0.1" ry="0.1" style="stroke:none;fill:#aaaaaa;;filter:url(#filter);"/>
<rect x="854.600000" y="128.000000" width="24.000000" height="24.000000" rx="0" ry="0" style="stroke:none;fill:#f44800;"/>
<text x="866.600000" y="142.000000" font-family="Arial" font-size="7" text-anchor="middle" fill="#FFFFFF">20</text>
<circle cx="856.600000" cy="130.000000" r="1"/>
<rect x="895.600000" y="113.000000" width="24.000000" height="24.000000" rx="0.1" ry="0.1" style="stroke:none;fill:#aaaaaa;;filter:url(#filter);"/>
<rect x="894.600000" y="112.000000" width="24.000000" height="24.000000" rx="0" ry="0" style="stroke:none;fill:#4B71A1;"/>
<text x="906.600000" y="126.000000" font-family="Arial" font-size="7" text-anchor="middle" fill="#FFFFFF">/</text>
<circle cx="896.600000" cy="114.000000" r="1"/>
<line x1="891.600000" y1="119.000000" x2="894.600000" y2="120.000000"  transform="rotate(0.000000,894.600000,120.000000)" style="stroke: black; stroke-width:0.25;"/>
<line x1="891.600000" y1="121.000000" x2="894.600000" y2="120.000000"  transform="rotate(0.000000,894.600000,120.000000)" style="stroke: black; stroke-width:0.25;"/>
<line x1="891.600000" y1="127.000000" x2="894.600000" y2="128.000000"  transform="rotate(0.000000,894.600000,128.000000)" style="stroke: black; stroke-width:0.25;"/>
<line x1="891.600000" y1="129.000000" x2="894.600000" y2="128.000000"  transform="rotate(0.000000,894.600000,128.000000)" style="stroke: black; stroke-width:0.25;"/>
<rect x="935.600000" y="97.000000" width="25.800000" height="24.000000" rx="0.1" ry="0.1" style="stroke:none;fill:#aaaaaa;;filter:url(#filter);"/>
<rect x="934.600000" y="96.000000" width="25.800000" height="24.000000" rx="0" ry="0" style="stroke:none;fill:#4B71A1;"/>
<text x="947.500000" y="110.000000" font-family="Arial" font-size="7" text-anchor="middle" fill="#FFFFFF">powf</text>
<circle cx="936.600000" cy="98.000000" r="1"/>
<line x1="931.600000" y1="103.000000" x2="934.600000" y2="104.000000"  transform="rotate(0.000000,934.600000,104.000000)" style="stroke: black; stroke-width:0.25;"/>
<line x1="931.600000" y1="105.000000" x2="934.600000" y2="104.000000"  transform="rotate(0.000000,934.600000,104.000000)" style="stroke: black; stroke-width:0.25;"/>
<line x1="931.600000" y1="111.000000" x2="934.600000" y2="112.000000"  transform="rotate(0.000000,934.600000,112.000000)" style="stroke: black; stroke-width:0.25;"/>
<line x1="931.600000" y1="113.000000" x2="934.600000" y2="112.000000"  transform="rotate(0.000000,934.600000,112.000000)" style="stroke: black; stroke-width:0.25;"/>
<line x1="813.600000" y1="55.000000" x2="813.600000" y2="161.000000"  style="stroke: black; stroke-linecap:round; stroke-width:0.25; stroke-dasharray:3,3;"/>
<line x1="813.600000" y1="161.000000" x2="969.400000" y2="161.000000"  style="stroke: black; stroke-linecap:round; stroke-width:0.25; stroke-dasharray:3,3;"/>
<line x1="969.400000" y1="161.000000" x2="969.400000" y2="55.000000"  style="stroke: black; stroke-linecap:round; stroke-width:0.25; stroke-dasharray:3,3;"/>
<line x1="813.600000" y1="55.000000" x2="818.600000" y2="55.000000"  style="stroke: black; stroke-linecap:round; stroke-width:0.25; stroke-dasharray:3,3;"/>
<line x1="854.075000" y1="55.000000" x2="969.400000" y2="55.000000"  style="stroke: black; stroke-linecap:round; stroke-width:0.25; stroke-dasharray:3,3;"/>
<text x="818.600000" y="57.000000" font-family="Arial" font-size="7">db2linear</text>
<line x1="15.000000" y1="15.000000" x2="15.000000" y2="201.000000"  style="stroke: black; stroke-linecap:round; stroke-width:0.25; stroke-dasharray:3,3;"/>
<line x1="15.000000" y1="201.000000" x2="987.400000" y2="201.000000"  style="stroke: black; stroke-linecap:round; stroke-width:0.25; stroke-dasharray:3,3;"/>
<line x1="987.400000" y1="201.000000" x2="987.400000" y2="15.000000"  style="stroke: black; stroke-linecap:round; stroke-width:0.25; stroke-dasharray:3,3;"/>
<line x1="15.000000" y1="15.000000" x2="20.000000" y2="15.000000"  style="stroke: black; stroke-linecap:round; stroke-width:0.25; stroke-dasharray:3,3;"/>
<line x1="49.025000" y1="15.000000" x2="987.400000" y2="15.000000"  style="stroke: black; stroke-linecap:round; stroke-width:0.25; stroke-dasharray:3,3;"/>
<text x="20.000000" y="17.000000" font-family="Arial" font-size="7">process</text>
<line x1="989.400000" y1="107.000000" x2="992.400000" y2="108.000000"  transform="rotate(0.000000,992.400000,108.000000)" style="stroke: black; stroke-width:0.25;"/>
<line x1="989.400000" y1="109.000000" x2="992.400000" y2="108.000000"  transform="rotate(0.000000,992.400000,108.000000)" style="stroke: black; stroke-width:0.25;"/>
<line x1="10.000000" y1="108.000000" x2="20.000000" y2="108.000000"  style="stroke:black; stroke-linecap:round; stroke-width:0.25;"/>
<line x1="20.000000" y1="108.000000" x2="24.000000" y2="108.000000"  style="stroke:black; stroke-linecap:round; stroke-width:0.25;"/>
<line x1="24.000000" y1="108.000000" x2="28.000000" y2="108.000000"  style="stroke:black; stroke-linecap:round; stroke-width:0.25;"/>
<line x1="28.000000" y1="82.000000" x2="36.000000" y2="82.000000"  style="stroke:black; stroke-linecap:round; stroke-width:0.25;"/>
<line x1="28.000000" y1="108.000000" x2="28.000000" y2="82.000000"  style="stroke:black; stroke-linecap:round; stroke-width:0.25;"/>
<line x1="28.000000" y1="108.000000" x2="28.000000" y2="108.000000"  style="stroke:black; stroke-linecap:round; stroke-width:0.25;"/>
<line x1="36.000000" y1="82.000000" x2="127.400000" y2="82.000000"  style="stroke:black; stroke-linecap:round; stroke-width:0.25;"/>
<line x1="127.400000" y1="82.000000" x2="218.800000" y2="82.000000"  style="stroke:black; stroke-linecap:round; stroke-width:0.25;"/>
<line x1="204.800000" y1="112.000000" x2="208.800000" y2="112.000000"  style="stroke:black; stroke-linecap:round; stroke-width:0.25;"/>
<line x1="208.800000" y1="112.000000" x2="218.800000" y2="112.000000"  style="stroke:black; stroke-linecap:round; stroke-width:0.25;"/>
<line x1="218.800000" y1="82.000000" x2="226.800000" y2="82.000000"  style="stroke:black; stroke-linecap:round; stroke-width:0.25;"/>
<line x1="218.800000" y1="112.000000" x2="226.800000" y2="112.000000"  style="stroke:black; stroke-linecap:round; stroke-width:0.25;"/>
<line x1="226.800000" y1="82.000000" x2="226.800000" y2="104.000000"  style="stroke:black; stroke-linecap:round; stroke-width:0.25;"/>
<line x1="226.800000" y1="104.000000" x2="226.800000" y2="104.000000"  style="stroke:black; stroke-linecap:round; stroke-width:0.25;"/>
<line x1="226.800000" y1="104.000000" x2="230.800000" y2="104.000000"  style="stroke:black; stroke-linecap:round; stroke-width:0.25;"/>
<line x1="226.800000" y1="112.000000" x2="230.800000" y2="112.000000"  style="stroke:black; stroke-linecap:round; stroke-width:0.25;"/>
<line x1="254.800000" y1="108.000000" x2="258.800000" y2="108.000000"  style="stroke:black; stroke-linecap:round; stroke-width:0.25;"/>
<line x1="258.800000" y1="108.000000" x2="317.800000" y2="88.000000"  style="stroke:black; stroke-linecap:round; stroke-width:0.25;"/>
<line x1="258.800000" y1="108.000000" x2="317.800000" y2="128.000000"  style="stroke:black; stroke-linecap:round; stroke-width:0.25;"/>
<line x1="317.800000" y1="88.000000" x2="333.800000" y2="88.000000"  style="stroke:black; stroke-linecap:round; stroke-width:0.25;"/>
<line x1="317.800000" y1="128.000000" x2="353.800000" y2="128.000000"  style="stroke:black; stroke-linecap:round; stroke-width:0.25;"/>
<line x1="333.800000" y1="88.000000" x2="349.800000" y2="88.000000"  style="stroke:black; stroke-linecap:round; stroke-width:0.25;"/>
<line x1="345.800000" y1="108.000000" x2="349.800000" y2="108.000000"  style="stroke:black; stroke-linecap:round; stroke-width:0.25;"/>
<line x1="349.800000" y1="88.000000" x2="357.800000" y2="88.000000"  style="stroke:black; stroke-linecap:round; stroke-width:0.25;"/>
<line x1="349.800000" y1="108.000000" x2="357.800000" y2="108.000000"  style="stroke:black; stroke-linecap:round; stroke-width:0.25;"/>
<line x1="353.800000" y1="128.000000" x2="389.800000" y2="128.000000"  style="stroke:black; stroke-linecap:round; stroke-width:0.25;"/>
<line x1="357.800000" y1="88.000000" x2="357.800000" y2="100.000000"  style="stroke:black; stroke-linecap:round; stroke-width:0.25;"/>
<line x1="357.800000" y1="100.000000" x2="357.800000" y2="100.000000"  style="stroke:black; stroke-linecap:round; stroke-width:0.25;"/>
<line x1="357.800000" y1="100.000000" x2="361.800000" y2="100.000000"  style="stroke:black; stroke-linecap:round; stroke-width:0.25;"/>
<line x1="357.800000" y1="108.000000" x2="361.800000" y2="108.000000"  style="stroke:black; stroke-linecap:round; stroke-width:0.25;"/>
<line x1="385.800000" y1="104.000000" x2="389.800000" y2="104.000000"  style="stroke:black; stroke-linecap:round; stroke-width:0.25;"/>
<line x1="389.800000" y1="104.000000" x2="397.800000" y2="104.000000"  style="stroke:black; stroke-linecap:round; stroke-width:0.25;"/>
<line x1="389.800000" y1="112.000000" x2="397.800000" y2="112.000000"  style="stroke:black; stroke-linecap:round; stroke-width:0.25;"/>
<line x1="389.800000" y1="128.000000" x2="389.800000" y2="112.000000"  style="stroke:black; stroke-linecap:round; stroke-width:0.25;"/>
<line x1="389.800000" y1="128.000000" x2="389.800000" y2="128.000000"  style="stroke:black; stroke-linecap:round; stroke-width:0.25;"/>
<line x1="397.800000" y1="104.000000" x2="401.800000" y2="104.000000"  style="stroke:black; stroke-linecap:round; stroke-width:0.25;"/>
<line x1="397.800000" y1="112.000000" x2="401.800000" y2="112.000000"  style="stroke:black; stroke-linecap:round; stroke-width:0.25;"/>
<line x1="425.800000" y1="108.000000" x2="429.800000" y2="108.000000"  style="stroke:black; stroke-linecap:round; stroke-width:0.25;"/>
<line x1="429.800000" y1="24.000000" x2="437.800000" y2="24.000000"  style="stroke:black; stroke-linecap:round; stroke-width:0.25;"/>
<line x1="429.800000" y1="108.000000" x2="429.800000" y2="24.000000"  style="stroke:black; stroke-linecap:round; stroke-width:0.25;"/>
<line x1="429.800000" y1="108.000000" x2="429.800000" y2="108.000000"  style="stroke:black; stroke-linecap:round; stroke-width:0.25;"/>
<line x1="437.800000" y1="24.000000" x2="603.200000" y2="24.000000"  style="stroke:black; stroke-linecap:round; stroke-width:0.25;"/>
<line x1="538.300000" y1="86.000000" x2="542.300000" y2="86.000000"  style="stroke:black; stroke-linecap:round; stroke-width:0.25;"/>
<line x1="542.300000" y1="86.000000" x2="604.800000" y2="86.000000"  style="stroke:black; stroke-linecap:round; stroke-width:0.25;"/>
<line x1="558.300000" y1="54.000000" x2="562.300000" y2="54.000000"  style="stroke:black; stroke-linecap:round; stroke-width:0.25;"/>
<line x1="562.300000" y1="54.000000" x2="644.800000" y2="54.000000"  style="stroke:black; stroke-linecap:round; stroke-width:0.25;"/>
<line x1="578.300000" y1="170.000000" x2="582.300000" y2="170.000000"  style="stroke:black; stroke-linecap:round; stroke-width:0.25;"/>
<line x1="582.300000" y1="170.000000" x2="684.800000" y2="170.000000"  style="stroke:black; stroke-linecap:round; stroke-width:0.25;"/>
<line x1="590.800000" y1="128.000000" x2="594.800000" y2="128.000000"  style="stroke:black; stroke-linecap:round; stroke-width:0.25;"/>
<line x1="594.800000" y1="128.000000" x2="604.800000" y2="128.000000"  style="stroke:black; stroke-linecap:round; stroke-width:0.25;"/>
<line x1="603.200000" y1="24.000000" x2="768.600000" y2="24.000000"  style="stroke:black; stroke-linecap:round; stroke-width:0.25;"/>
<line x1="604.800000" y1="86.000000" x2="612.800000" y2="86.000000"  style="stroke:black; stroke-linecap:round; stroke-width:0.25;"/>
<line x1="604.800000" y1="116.000000" x2="612.800000" y2="116.000000"  style="stroke:black; stroke-linecap:round; stroke-width:0.25;"/>
<line x1="604.800000" y1="128.000000" x2="604.800000" y2="116.000000"  style="stroke:black; stroke-linecap:round; stroke-width:0.25;"/>
<line x1="604.800000" y1="128.000000" x2="604.800000" y2="128.000000"  style="stroke:black; stroke-linecap:round; stroke-width:0.25;"/>
<line x1="612.800000" y1="86.000000" x2="612.800000" y2="108.000000"  style="stroke:black; stroke-linecap:round; stroke-width:0.25;"/>
<line x1="612.800000" y1="108.000000" x2="612.800000" y2="108.000000"  style="stroke:black; stroke-linecap:round; stroke-width:0.25;"/>
<line x1="612.800000" y1="108.000000" x2="616.800000" y2="108.000000"  style="stroke:black; stroke-linecap:round; stroke-width:0.25;"/>
<line x1="612.800000" y1="116.000000" x2="616.800000" y2="116.000000"  style="stroke:black; stroke-linecap:round; stroke-width:0.25;"/>
<line x1="640.800000" y1="112.000000" x2="644.800000" y2="112.000000"  style="stroke:black; stroke-linecap:round; stroke-width:0.25;"/>
<line x1="644.800000" y1="54.000000" x2="652.800000" y2="54.000000"  style="stroke:black; stroke-linecap:round; stroke-width:0.25;"/>
<line x1="644.800000" y1="100.000000" x2="652.800000" y2="100.000000"  style="stroke:black; stroke-linecap:round; stroke-width:0.25;"/>
<line x1="644.800000" y1="112.000000" x2="644.800000" y2="100.000000"  style="stroke:black; stroke-linecap:round; stroke-width:0.25;"/>
<line x1="644.800000" y1="112.000000" x2="644.800000" y2="112.000000"  style="stroke:black; stroke-linecap:round; stroke-width:0.25;"/>
<line x1="652.800000" y1="54.000000" x2="652.800000" y2="92.000000"  style="stroke:black; stroke-linecap:round; stroke-width:0.25;"/>
<line x1="652.800000" y1="92.000000" x2="652.800000" y2="92.000000"  style="stroke:black; stroke-linecap:round; stroke-width:0.25;"/>
<line x1="652.800000" y1="92.000000" x2="656.800000" y2="92.000000"  style="stroke:black; stroke-linecap:round; stroke-width:0.25;"/>
<line x1="652.800000" y1="100.000000" x2="656.800000" y2="100.000000"  style="stroke:black; stroke-linecap:round; stroke-width:0.25;"/>
<line x1="680.800000" y1="96.000000" x2="684.800000" y2="96.000000"  style="stroke:black; stroke-linecap:round; stroke-width:0.25;"/>
<line x1="684.800000" y1="96.000000" x2="692.800000" y2="96.000000"  style="stroke:black; stroke-linecap:round; stroke-width:0.25;"/>
<line x1="684.800000" y1="116.000000" x2="692.800000" y2="116.000000"  style="stroke:black; stroke-linecap:round; stroke-width:0.25;"/>
<line x1="684.800000" y1="170.000000" x2="684.800000" y2="116.000000"  style="stroke:black; stroke-linecap:round; stroke-width:0.25;"/>
<line x1="684.800000" y1="170.000000" x2="684.800000" y2="170.000000"  style="stroke:black; stroke-linecap:round; stroke-width:0.25;"/>
<line x1="692.800000" y1="96.000000" x2="692.800000" y2="108.000000"  style="stroke:black; stroke-linecap:round; stroke-width:0.25;"/>
<line x1="692.800000" y1="108.000000" x2="692.800000" y2="108.000000"  style="stroke:black; stroke-linecap:round; stroke-width:0.25;"/>
<line x1="692.800000" y1="108.000000" x2="696.800000" y2="108.000000"  style="stroke:black; stroke-linecap:round; stroke-width:0.25;"/>
<line x1="692.800000" y1="116.000000" x2="696.800000" y2="116.000000"  style="stroke:black; stroke-linecap:round; stroke-width:0.25;"/>
<line x1="720.800000" y1="112.000000" x2="724.800000" y2="112.000000"  style="stroke:black; stroke-linecap:round; stroke-width:0.25;"/>
<line x1="724.800000" y1="112.000000" x2="724.800000" y2="112.000000"  style="stroke:black; stroke-linecap:round; stroke-width:0.25;"/>
<line x1="724.800000" y1="112.000000" x2="728.800000" y2="112.000000"  style="stroke:black; stroke-linecap:round; stroke-width:0.25;"/>
<line x1="754.600000" y1="112.000000" x2="758.600000" y2="112.000000"  style="stroke:black; stroke-linecap:round; stroke-width:0.25;"/>
<line x1="758.600000" y1="112.000000" x2="768.600000" y2="112.000000"  style="stroke:black; stroke-linecap:round; stroke-width:0.25;"/>
<line x1="768.600000" y1="24.000000" x2="776.600000" y2="24.000000"  style="stroke:black; stroke-linecap:round; stroke-width:0.25;"/>
<line x1="768.600000" y1="112.000000" x2="776.600000" y2="112.000000"  style="stroke:black; stroke-linecap:round; stroke-width:0.25;"/>
<line x1="776.600000" y1="24.000000" x2="776.600000" y2="104.000000"  style="stroke:black; stroke-linecap:round; stroke-width:0.25;"/>
<line x1="776.600000" y1="104.000000" x2="776.600000" y2="104.000000"  style="stroke:black; stroke-linecap:round; stroke-width:0.25;"/>
<line x1="776.600000" y1="104.000000" x2="780.600000" y2="104.000000"  style="stroke:black; stroke-linecap:round; stroke-width:0.25;"/>
<line x1="776.600000" y1="112.000000" x2="780.600000" y2="112.000000"  style="stroke:black; stroke-linecap:round; stroke-width:0.25;"/>
<line x1="804.600000" y1="108.000000" x2="808.600000" y2="108.000000"  style="stroke:black; stroke-linecap:round; stroke-width:0.25;"/>
<line x1="808.600000" y1="108.000000" x2="808.600000" y2="108.000000"  style="stroke:black; stroke-linecap:round; stroke-width:0.25;"/>
<line x1="808.600000" y1="108.000000" x2="818.600000" y2="108.000000"  style="stroke:black; stroke-linecap:round; stroke-width:0.25;"/>
<line x1="818.600000" y1="108.000000" x2="822.600000" y2="108.000000"  style="stroke:black; stroke-linecap:round; stroke-width:0.25;"/>
<line x1="878.600000" y1="108.000000" x2="882.600000" y2="108.000000"  style="stroke:black; stroke-linecap:round; stroke-width:0.25;"/>
<line x1="878.600000" y1="140.000000" x2="882.600000" y2="140.000000"  style="stroke:black; stroke-linecap:round; stroke-width:0.25;"/>
<line x1="882.600000" y1="108.000000" x2="890.600000" y2="108.000000"  style="stroke:black; stroke-linecap:round; stroke-width:0.25;"/>
<line x1="882.600000" y1="128.000000" x2="890.600000" y2="128.000000"  style="stroke:black; stroke-linecap:round; stroke-width:0.25;"/>
<line x1="882.600000" y1="140.000000" x2="882.600000" y2="128.000000"  style="stroke:black; stroke-linecap:round; stroke-width:0.25;"/>
<line x1="882.600000" y1="140.000000" x2="882.600000" y2="140.000000"  style="stroke:black; stroke-linecap:round; stroke-width:0.25;"/>
<line x1="890.600000" y1="108.000000" x2="890.600000" y2="120.000000"  style="stroke:black; stroke-linecap:round; stroke-width:0.25;"/>
<line x1="890.600000" y1="120.000000" x2="890.600000" y2="120.000000"  style="stroke:black; stroke-linecap:round; stroke-width:0.25;"/>
<line x1="890.600000" y1="120.000000" x2="894.600000" y2="120.000000"  style="stroke:black; stroke-linecap:round; stroke-width:0.25;"/>
<line x1="890.600000" y1="128.000000" x2="894.600000" y2="128.000000"  style="stroke:black; stroke-linecap:round; stroke-width:0.25;"/>
<line x1="898.600000" y1="76.000000" x2="902.600000" y2="76.000000"  style="stroke:black; stroke-linecap:round; stroke-width:0.25;"/>
<line x1="902.600000" y1="76.000000" x2="922.600000" y2="76.000000"  style="stroke:black; stroke-linecap:round; stroke-width:0.25;"/>
<line x1="918.600000" y1="124.000000" x2="922.600000" y2="124.000000"  style="stroke:black; stroke-linecap:round; stroke-width:0.25;"/>
<line x1="922.600000" y1="76.000000" x2="930.600000" y2="76.000000"  style="stroke:black; stroke-linecap:round; stroke-width:0.25;"/>
<line x1="922.600000" y1="112.000000" x2="930.600000" y2="112.000000"  style="stroke:black; stroke-linecap:round; stroke-width:0.25;"/>
<line x1="922.600000" y1="124.000000" x2="922.600000" y2="112.000000"  style="stroke:black; stroke-linecap:round; stroke-width:0.25;"/>
<line x1="922.600000" y1="124.000000" x2="922.600000" y2="124.000000"  style="stroke:black; stroke-linecap:round; stroke-width:0.25;"/>
<line x1="930.600000" y1="76.000000" x2="930.600000" y2="104.000000"  style="stroke:black; stroke-linecap:round; stroke-width:0.25;"/>
<line x1="930.600000" y1="104.000000" x2="930.600000" y2="104.000000"  style="stroke:black; stroke-linecap:round; stroke-width:0.25;"/>
<line x1="930.600000" y1="104.000000" x2="934.600000" y2="104.000000"  style="stroke:black; stroke-linecap:round; stroke-width:0.25;"/>
<line x1="930.600000" y1="112.000000" x2="934.600000" y2="112.000000"  style="stroke:black; stroke-linecap:round; stroke-width:0.25;"/>
<line x1="960.400000" y1="108.000000" x2="964.400000" y2="108.000000"  style="stroke:black; stroke-linecap:round; stroke-width:0.25;"/>
<line x1="964.400000" y1="108.000000" x2="974.400000" y2="108.000000"  style="stroke:black; stroke-linecap:round; stroke-width:0.25;"/>
<line x1="974.400000" y1="108.000000" x2="974.400000" y2="108.000000"  style="stroke:black; stroke-linecap:round; stroke-width:0.25;"/>
<line x1="974.400000" y1="108.000000" x2="978.400000" y2="108.000000"  style="stroke:black; stroke-linecap:round; stroke-width:0.25;"/>
<line x1="978.400000" y1="108.000000" x2="982.400000" y2="108.000000"  style="stroke:black; stroke-linecap:round; stroke-width:0.25;"/>
<line x1="982.400000" y1="108.000000" x2="992.400000" y2="108.000000"  style="stroke:black; stroke-linecap:round; stroke-width:0.25;"/>
</svg>
