<?xml version="1.0"?>
<svg xmlns="http://www.w3.org/2000/svg" xmlns:xlink="http://www.w3.org/1999/xlink" viewBox="0 0 349.000000 188.000000" width="174.500000mm" height="94.000000mm" version="1.1">
<a xlink:href="AT-0x2a19000.svg">
<rect x="1.000000" y="1.000000" width="348.000000" height="187.000000" rx="0" ry="0" style="stroke:none;fill:#cccccc;"/>
<rect x="0.000000" y="0.000000" width="348.000000" height="187.000000" rx="0" ry="0" style="stroke:none;fill:#ffffff;"/>
</a>
<text x="10.000000" y="7.000000" font-family="Arial" font-size="7"></text>
<rect x="126.600000" y="25.000000" width="25.800000" height="24.000000" rx="0" ry="0" style="stroke:none;fill:#cccccc;"/>
<rect x="125.600000" y="24.000000" width="25.800000" height="24.000000" rx="0" ry="0" style="stroke:none;fill:#f44800;"/>
<text x="138.500000" y="38.000000" font-family="Arial" font-size="7" text-anchor="middle" fill="#FFFFFF">-2.2</text>
<circle cx="127.600000" cy="26.000000" r="1"/>
<rect x="35.000000" y="67.000000" width="129.000000" height="24.000000" rx="0" ry="0" style="stroke:none;fill:#cccccc;"/>
<rect x="34.000000" y="66.000000" width="129.000000" height="24.000000" rx="0" ry="0" style="stroke:none;fill:#477881;"/>
<text x="98.500000" y="80.000000" font-family="Arial" font-size="7" text-anchor="middle" fill="#FFFFFF">hslider(Ta, 1, 0.1, 500, 0.1)</text>
<circle cx="36.000000" cy="68.000000" r="1"/>
<line x1="25.000000" y1="57.000000" x2="25.000000" y2="99.000000"  style="stroke: black; stroke-linecap:round; stroke-width:0.25; stroke-dasharray:3,3;"/>
<line x1="25.000000" y1="99.000000" x2="172.000000" y2="99.000000"  style="stroke: black; stroke-linecap:round; stroke-width:0.25; stroke-dasharray:3,3;"/>
<line x1="172.000000" y1="99.000000" x2="172.000000" y2="57.000000"  style="stroke: black; stroke-linecap:round; stroke-width:0.25; stroke-dasharray:3,3;"/>
<line x1="25.000000" y1="57.000000" x2="30.000000" y2="57.000000"  style="stroke: black; stroke-linecap:round; stroke-width:0.25; stroke-dasharray:3,3;"/>
<line x1="42.900000" y1="57.000000" x2="172.000000" y2="57.000000"  style="stroke: black; stroke-linecap:round; stroke-width:0.25; stroke-dasharray:3,3;"/>
<text x="30.000000" y="59.000000" font-family="Arial" font-size="7">Ta</text>
<rect x="86.600000" y="109.000000" width="25.800000" height="24.000000" rx="0" ry="0" style="stroke:none;fill:#cccccc;"/>
<rect x="85.600000" y="108.000000" width="25.800000" height="24.000000" rx="0" ry="0" style="stroke:none;fill:#f44800;"/>
<text x="98.500000" y="122.000000" font-family="Arial" font-size="7" text-anchor="middle" fill="#FFFFFF">0.001</text>
<circle cx="87.600000" cy="110.000000" r="1"/>
<rect x="190.000000" y="83.000000" width="24.000000" height="24.000000" rx="0" ry="0" style="stroke:none;fill:#cccccc;"/>
<rect x="189.000000" y="82.000000" width="24.000000" height="24.000000" rx="0" ry="0" style="stroke:none;fill:#4B71A1;"/>
<text x="201.000000" y="96.000000" font-family="Arial" font-size="7" text-anchor="middle" fill="#FFFFFF">*</text>
<circle cx="191.000000" cy="84.000000" r="1"/>
<line x1="186.000000" y1="89.000000" x2="189.000000" y2="90.000000"  transform="rotate(0.000000,189.000000,90.000000)" style="stroke: black; stroke-width:0.25;"/>
<line x1="186.000000" y1="91.000000" x2="189.000000" y2="90.000000"  transform="rotate(0.000000,189.000000,90.000000)" style="stroke: black; stroke-width:0.25;"/>
<line x1="186.000000" y1="97.000000" x2="189.000000" y2="98.000000"  transform="rotate(0.000000,189.000000,98.000000)" style="stroke: black; stroke-width:0.25;"/>
<line x1="186.000000" y1="99.000000" x2="189.000000" y2="98.000000"  transform="rotate(0.000000,189.000000,98.000000)" style="stroke: black; stroke-width:0.25;"/>
<a xlink:href="SR-0x2a16800.svg">
<rect x="107.500000" y="141.000000" width="24.000000" height="24.000000" rx="0" ry="0" style="stroke:none;fill:#cccccc;"/>
<rect x="106.500000" y="140.000000" width="24.000000" height="24.000000" rx="0" ry="0" style="stroke:none;fill:#003366;"/>
</a>
<a xlink:href="SR-0x2a16800.svg">
<text x="118.500000" y="154.000000" font-family="Arial" font-size="7" text-anchor="middle" fill="#FFFFFF">SR</text>
</a>
<circle cx="108.500000" cy="142.000000" r="1"/>
<rect x="230.000000" y="99.000000" width="24.000000" height="24.000000" rx="0" ry="0" style="stroke:none;fill:#cccccc;"/>
<rect x="229.000000" y="98.000000" width="24.000000" height="24.000000" rx="0" ry="0" style="stroke:none;fill:#4B71A1;"/>
<text x="241.000000" y="112.000000" font-family="Arial" font-size="7" text-anchor="middle" fill="#FFFFFF">*</text>
<circle cx="231.000000" cy="100.000000" r="1"/>
<line x1="226.000000" y1="105.000000" x2="229.000000" y2="106.000000"  transform="rotate(0.000000,229.000000,106.000000)" style="stroke: black; stroke-width:0.25;"/>
<line x1="226.000000" y1="107.000000" x2="229.000000" y2="106.000000"  transform="rotate(0.000000,229.000000,106.000000)" style="stroke: black; stroke-width:0.25;"/>
<line x1="226.000000" y1="113.000000" x2="229.000000" y2="114.000000"  transform="rotate(0.000000,229.000000,114.000000)" style="stroke: black; stroke-width:0.25;"/>
<line x1="226.000000" y1="115.000000" x2="229.000000" y2="114.000000"  transform="rotate(0.000000,229.000000,114.000000)" style="stroke: black; stroke-width:0.25;"/>
<rect x="270.000000" y="83.000000" width="24.000000" height="24.000000" rx="0" ry="0" style="stroke:none;fill:#cccccc;"/>
<rect x="269.000000" y="82.000000" width="24.000000" height="24.000000" rx="0" ry="0" style="stroke:none;fill:#4B71A1;"/>
<text x="281.000000" y="96.000000" font-family="Arial" font-size="7" text-anchor="middle" fill="#FFFFFF">/</text>
<circle cx="271.000000" cy="84.000000" r="1"/>
<line x1="266.000000" y1="89.000000" x2="269.000000" y2="90.000000"  transform="rotate(0.000000,269.000000,90.000000)" style="stroke: black; stroke-width:0.25;"/>
<line x1="266.000000" y1="91.000000" x2="269.000000" y2="90.000000"  transform="rotate(0.000000,269.000000,90.000000)" style="stroke: black; stroke-width:0.25;"/>
<line x1="266.000000" y1="97.000000" x2="269.000000" y2="98.000000"  transform="rotate(0.000000,269.000000,98.000000)" style="stroke: black; stroke-width:0.25;"/>
<line x1="266.000000" y1="99.000000" x2="269.000000" y2="98.000000"  transform="rotate(0.000000,269.000000,98.000000)" style="stroke: black; stroke-width:0.25;"/>
<rect x="302.000000" y="83.000000" width="24.000000" height="24.000000" rx="0" ry="0" style="stroke:none;fill:#cccccc;"/>
<rect x="301.000000" y="82.000000" width="24.000000" height="24.000000" rx="0" ry="0" style="stroke:none;fill:#4B71A1;"/>
<text x="313.000000" y="96.000000" font-family="Arial" font-size="7" text-anchor="middle" fill="#FFFFFF">exp</text>
<circle cx="303.000000" cy="84.000000" r="1"/>
<line x1="298.000000" y1="93.000000" x2="301.000000" y2="94.000000"  transform="rotate(0.000000,301.000000,94.000000)" style="stroke: black; stroke-width:0.25;"/>
<line x1="298.000000" y1="95.000000" x2="301.000000" y2="94.000000"  transform="rotate(0.000000,301.000000,94.000000)" style="stroke: black; stroke-width:0.25;"/>
<line x1="15.000000" y1="15.000000" x2="15.000000" y2="173.000000"  style="stroke: black; stroke-linecap:round; stroke-width:0.25; stroke-dasharray:3,3;"/>
<line x1="15.000000" y1="173.000000" x2="334.000000" y2="173.000000"  style="stroke: black; stroke-linecap:round; stroke-width:0.25; stroke-dasharray:3,3;"/>
<line x1="334.000000" y1="173.000000" x2="334.000000" y2="15.000000"  style="stroke: black; stroke-linecap:round; stroke-width:0.25; stroke-dasharray:3,3;"/>
<line x1="15.000000" y1="15.000000" x2="20.000000" y2="15.000000"  style="stroke: black; stroke-linecap:round; stroke-width:0.25; stroke-dasharray:3,3;"/>
<line x1="29.675000" y1="15.000000" x2="334.000000" y2="15.000000"  style="stroke: black; stroke-linecap:round; stroke-width:0.25; stroke-dasharray:3,3;"/>
<text x="20.000000" y="17.000000" font-family="Arial" font-size="7">a</text>
<line x1="336.000000" y1="93.000000" x2="339.000000" y2="94.000000"  transform="rotate(0.000000,339.000000,94.000000)" style="stroke: black; stroke-width:0.25;"/>
<line x1="336.000000" y1="95.000000" x2="339.000000" y2="94.000000"  transform="rotate(0.000000,339.000000,94.000000)" style="stroke: black; stroke-width:0.25;"/>
<line x1="111.400000" y1="120.000000" x2="115.400000" y2="120.000000"  style="stroke:black; stroke-linecap:round; stroke-width:0.25;"/>
<line x1="115.400000" y1="120.000000" x2="177.000000" y2="120.000000"  style="stroke:black; stroke-linecap:round; stroke-width:0.25;"/>
<line x1="130.500000" y1="152.000000" x2="134.500000" y2="152.000000"  style="stroke:black; stroke-linecap:round; stroke-width:0.25;"/>
<line x1="134.500000" y1="152.000000" x2="217.000000" y2="152.000000"  style="stroke:black; stroke-linecap:round; stroke-width:0.25;"/>
<line x1="151.400000" y1="36.000000" x2="155.400000" y2="36.000000"  style="stroke:black; stroke-linecap:round; stroke-width:0.25;"/>
<line x1="155.400000" y1="36.000000" x2="257.000000" y2="36.000000"  style="stroke:black; stroke-linecap:round; stroke-width:0.25;"/>
<line x1="163.000000" y1="78.000000" x2="167.000000" y2="78.000000"  style="stroke:black; stroke-linecap:round; stroke-width:0.25;"/>
<line x1="167.000000" y1="78.000000" x2="177.000000" y2="78.000000"  style="stroke:black; stroke-linecap:round; stroke-width:0.25;"/>
<line x1="177.000000" y1="78.000000" x2="185.000000" y2="78.000000"  style="stroke:black; stroke-linecap:round; stroke-width:0.25;"/>
<line x1="177.000000" y1="98.000000" x2="185.000000" y2="98.000000"  style="stroke:black; stroke-linecap:round; stroke-width:0.25;"/>
<line x1="177.000000" y1="120.000000" x2="177.000000" y2="98.000000"  style="stroke:black; stroke-linecap:round; stroke-width:0.25;"/>
<line x1="177.000000" y1="120.000000" x2="177.000000" y2="120.000000"  style="stroke:black; stroke-linecap:round; stroke-width:0.25;"/>
<line x1="185.000000" y1="78.000000" x2="185.000000" y2="90.000000"  style="stroke:black; stroke-linecap:round; stroke-width:0.25;"/>
<line x1="185.000000" y1="90.000000" x2="185.000000" y2="90.000000"  style="stroke:black; stroke-linecap:round; stroke-width:0.25;"/>
<line x1="185.000000" y1="90.000000" x2="189.000000" y2="90.000000"  style="stroke:black; stroke-linecap:round; stroke-width:0.25;"/>
<line x1="185.000000" y1="98.000000" x2="189.000000" y2="98.000000"  style="stroke:black; stroke-linecap:round; stroke-width:0.25;"/>
<line x1="213.000000" y1="94.000000" x2="217.000000" y2="94.000000"  style="stroke:black; stroke-linecap:round; stroke-width:0.25;"/>
<line x1="217.000000" y1="94.000000" x2="225.000000" y2="94.000000"  style="stroke:black; stroke-linecap:round; stroke-width:0.25;"/>
<line x1="217.000000" y1="114.000000" x2="225.000000" y2="114.000000"  style="stroke:black; stroke-linecap:round; stroke-width:0.25;"/>
<line x1="217.000000" y1="152.000000" x2="217.000000" y2="114.000000"  style="stroke:black; stroke-linecap:round; stroke-width:0.25;"/>
<line x1="217.000000" y1="152.000000" x2="217.000000" y2="152.000000"  style="stroke:black; stroke-linecap:round; stroke-width:0.25;"/>
<line x1="225.000000" y1="94.000000" x2="225.000000" y2="106.000000"  style="stroke:black; stroke-linecap:round; stroke-width:0.25;"/>
<line x1="225.000000" y1="106.000000" x2="225.000000" y2="106.000000"  style="stroke:black; stroke-linecap:round; stroke-width:0.25;"/>
<line x1="225.000000" y1="106.000000" x2="229.000000" y2="106.000000"  style="stroke:black; stroke-linecap:round; stroke-width:0.25;"/>
<line x1="225.000000" y1="114.000000" x2="229.000000" y2="114.000000"  style="stroke:black; stroke-linecap:round; stroke-width:0.25;"/>
<line x1="253.000000" y1="110.000000" x2="257.000000" y2="110.000000"  style="stroke:black; stroke-linecap:round; stroke-width:0.25;"/>
<line x1="257.000000" y1="36.000000" x2="265.000000" y2="36.000000"  style="stroke:black; stroke-linecap:round; stroke-width:0.25;"/>
<line x1="257.000000" y1="98.000000" x2="265.000000" y2="98.000000"  style="stroke:black; stroke-linecap:round; stroke-width:0.25;"/>
<line x1="257.000000" y1="110.000000" x2="257.000000" y2="98.000000"  style="stroke:black; stroke-linecap:round; stroke-width:0.25;"/>
<line x1="257.000000" y1="110.000000" x2="257.000000" y2="110.000000"  style="stroke:black; stroke-linecap:round; stroke-width:0.25;"/>
<line x1="265.000000" y1="36.000000" x2="265.000000" y2="90.000000"  style="stroke:black; stroke-linecap:round; stroke-width:0.25;"/>
<line x1="265.000000" y1="90.000000" x2="265.000000" y2="90.000000"  style="stroke:black; stroke-linecap:round; stroke-width:0.25;"/>
<line x1="265.000000" y1="90.000000" x2="269.000000" y2="90.000000"  style="stroke:black; stroke-linecap:round; stroke-width:0.25;"/>
<line x1="265.000000" y1="98.000000" x2="269.000000" y2="98.000000"  style="stroke:black; stroke-linecap:round; stroke-width:0.25;"/>
<line x1="293.000000" y1="94.000000" x2="297.000000" y2="94.000000"  style="stroke:black; stroke-linecap:round; stroke-width:0.25;"/>
<line x1="297.000000" y1="94.000000" x2="297.000000" y2="94.000000"  style="stroke:black; stroke-linecap:round; stroke-width:0.25;"/>
<line x1="297.000000" y1="94.000000" x2="301.000000" y2="94.000000"  style="stroke:black; stroke-linecap:round; stroke-width:0.25;"/>
<line x1="325.000000" y1="94.000000" x2="329.000000" y2="94.000000"  style="stroke:black; stroke-linecap:round; stroke-width:0.25;"/>
<line x1="329.000000" y1="94.000000" x2="339.000000" y2="94.000000"  style="stroke:black; stroke-linecap:round; stroke-width:0.25;"/>
</svg>
