<?xml version="1.0"?>
<svg xmlns="http://www.w3.org/2000/svg" xmlns:xlink="http://www.w3.org/1999/xlink" viewBox="0 0 361.900000 188.000000" width="180.950000mm" height="94.000000mm" version="1.1">
<a xlink:href="RT-0x2a22c00.svg">
<rect x="1.000000" y="1.000000" width="360.900000" height="187.000000" rx="0" ry="0" style="stroke:none;fill:#cccccc;"/>
<rect x="0.000000" y="0.000000" width="360.900000" height="187.000000" rx="0" ry="0" style="stroke:none;fill:#ffffff;"/>
</a>
<text x="10.000000" y="7.000000" font-family="Arial" font-size="7"></text>
<rect x="133.050000" y="25.000000" width="25.800000" height="24.000000" rx="0" ry="0" style="stroke:none;fill:#cccccc;"/>
<rect x="132.050000" y="24.000000" width="25.800000" height="24.000000" rx="0" ry="0" style="stroke:none;fill:#f44800;"/>
<text x="144.950000" y="38.000000" font-family="Arial" font-size="7" text-anchor="middle" fill="#FFFFFF">-2.2</text>
<circle cx="134.050000" cy="26.000000" r="1"/>
<rect x="35.000000" y="67.000000" width="141.900000" height="24.000000" rx="0" ry="0" style="stroke:none;fill:#cccccc;"/>
<rect x="34.000000" y="66.000000" width="141.900000" height="24.000000" rx="0" ry="0" style="stroke:none;fill:#477881;"/>
<text x="104.950000" y="80.000000" font-family="Arial" font-size="7" text-anchor="middle" fill="#FFFFFF">hslider(Tr, 20, 0.1, 1000, 0.1)</text>
<circle cx="36.000000" cy="68.000000" r="1"/>
<line x1="25.000000" y1="57.000000" x2="25.000000" y2="99.000000"  style="stroke: black; stroke-linecap:round; stroke-width:0.25; stroke-dasharray:3,3;"/>
<line x1="25.000000" y1="99.000000" x2="184.900000" y2="99.000000"  style="stroke: black; stroke-linecap:round; stroke-width:0.25; stroke-dasharray:3,3;"/>
<line x1="184.900000" y1="99.000000" x2="184.900000" y2="57.000000"  style="stroke: black; stroke-linecap:round; stroke-width:0.25; stroke-dasharray:3,3;"/>
<line x1="25.000000" y1="57.000000" x2="30.000000" y2="57.000000"  style="stroke: black; stroke-linecap:round; stroke-width:0.25; stroke-dasharray:3,3;"/>
<line x1="42.900000" y1="57.000000" x2="184.900000" y2="57.000000"  style="stroke: black; stroke-linecap:round; stroke-width:0.25; stroke-dasharray:3,3;"/>
<text x="30.000000" y="59.000000" font-family="Arial" font-size="7">Tr</text>
<rect x="93.050000" y="109.000000" width="25.800000" height="24.000000" rx="0" ry="0" style="stroke:none;fill:#cccccc;"/>
<rect x="92.050000" y="108.000000" width="25.800000" height="24.000000" rx="0" ry="0" style="stroke:none;fill:#f44800;"/>
<text x="104.950000" y="122.000000" font-family="Arial" font-size="7" text-anchor="middle" fill="#FFFFFF">0.001</text>
<circle cx="94.050000" cy="110.000000" r="1"/>
<rect x="202.900000" y="83.000000" width="24.000000" height="24.000000" rx="0" ry="0" style="stroke:none;fill:#cccccc;"/>
<rect x="201.900000" y="82.000000" width="24.000000" height="24.000000" rx="0" ry="0" style="stroke:none;fill:#4B71A1;"/>
<text x="213.900000" y="96.000000" font-family="Arial" font-size="7" text-anchor="middle" fill="#FFFFFF">*</text>
<circle cx="203.900000" cy="84.000000" r="1"/>
<line x1="198.900000" y1="89.000000" x2="201.900000" y2="90.000000"  transform="rotate(0.000000,201.900000,90.000000)" style="stroke: black; stroke-width:0.25;"/>
<line x1="198.900000" y1="91.000000" x2="201.900000" y2="90.000000"  transform="rotate(0.000000,201.900000,90.000000)" style="stroke: black; stroke-width:0.25;"/>
<line x1="198.900000" y1="97.000000" x2="201.900000" y2="98.000000"  transform="rotate(0.000000,201.900000,98.000000)" style="stroke: black; stroke-width:0.25;"/>
<line x1="198.900000" y1="99.000000" x2="201.900000" y2="98.000000"  transform="rotate(0.000000,201.900000,98.000000)" style="stroke: black; stroke-width:0.25;"/>
<a xlink:href="SR-0x2a16800.svg">
<rect x="113.950000" y="141.000000" width="24.000000" height="24.000000" rx="0" ry="0" style="stroke:none;fill:#cccccc;"/>
<rect x="112.950000" y="140.000000" width="24.000000" height="24.000000" rx="0" ry="0" style="stroke:none;fill:#003366;"/>
</a>
<a xlink:href="SR-0x2a16800.svg">
<text x="124.950000" y="154.000000" font-family="Arial" font-size="7" text-anchor="middle" fill="#FFFFFF">SR</text>
</a>
<circle cx="114.950000" cy="142.000000" r="1"/>
<rect x="242.900000" y="99.000000" width="24.000000" height="24.000000" rx="0" ry="0" style="stroke:none;fill:#cccccc;"/>
<rect x="241.900000" y="98.000000" width="24.000000" height="24.000000" rx="0" ry="0" style="stroke:none;fill:#4B71A1;"/>
<text x="253.900000" y="112.000000" font-family="Arial" font-size="7" text-anchor="middle" fill="#FFFFFF">*</text>
<circle cx="243.900000" cy="100.000000" r="1"/>
<line x1="238.900000" y1="105.000000" x2="241.900000" y2="106.000000"  transform="rotate(0.000000,241.900000,106.000000)" style="stroke: black; stroke-width:0.25;"/>
<line x1="238.900000" y1="107.000000" x2="241.900000" y2="106.000000"  transform="rotate(0.000000,241.900000,106.000000)" style="stroke: black; stroke-width:0.25;"/>
<line x1="238.900000" y1="113.000000" x2="241.900000" y2="114.000000"  transform="rotate(0.000000,241.900000,114.000000)" style="stroke: black; stroke-width:0.25;"/>
<line x1="238.900000" y1="115.000000" x2="241.900000" y2="114.000000"  transform="rotate(0.000000,241.900000,114.000000)" style="stroke: black; stroke-width:0.25;"/>
<rect x="282.900000" y="83.000000" width="24.000000" height="24.000000" rx="0" ry="0" style="stroke:none;fill:#cccccc;"/>
<rect x="281.900000" y="82.000000" width="24.000000" height="24.000000" rx="0" ry="0" style="stroke:none;fill:#4B71A1;"/>
<text x="293.900000" y="96.000000" font-family="Arial" font-size="7" text-anchor="middle" fill="#FFFFFF">/</text>
<circle cx="283.900000" cy="84.000000" r="1"/>
<line x1="278.900000" y1="89.000000" x2="281.900000" y2="90.000000"  transform="rotate(0.000000,281.900000,90.000000)" style="stroke: black; stroke-width:0.25;"/>
<line x1="278.900000" y1="91.000000" x2="281.900000" y2="90.000000"  transform="rotate(0.000000,281.900000,90.000000)" style="stroke: black; stroke-width:0.25;"/>
<line x1="278.900000" y1="97.000000" x2="281.900000" y2="98.000000"  transform="rotate(0.000000,281.900000,98.000000)" style="stroke: black; stroke-width:0.25;"/>
<line x1="278.900000" y1="99.000000" x2="281.900000" y2="98.000000"  transform="rotate(0.000000,281.900000,98.000000)" style="stroke: black; stroke-width:0.25;"/>
<rect x="314.900000" y="83.000000" width="24.000000" height="24.000000" rx="0" ry="0" style="stroke:none;fill:#cccccc;"/>
<rect x="313.900000" y="82.000000" width="24.000000" height="24.000000" rx="0" ry="0" style="stroke:none;fill:#4B71A1;"/>
<text x="325.900000" y="96.000000" font-family="Arial" font-size="7" text-anchor="middle" fill="#FFFFFF">exp</text>
<circle cx="315.900000" cy="84.000000" r="1"/>
<line x1="310.900000" y1="93.000000" x2="313.900000" y2="94.000000"  transform="rotate(0.000000,313.900000,94.000000)" style="stroke: black; stroke-width:0.25;"/>
<line x1="310.900000" y1="95.000000" x2="313.900000" y2="94.000000"  transform="rotate(0.000000,313.900000,94.000000)" style="stroke: black; stroke-width:0.25;"/>
<line x1="15.000000" y1="15.000000" x2="15.000000" y2="173.000000"  style="stroke: black; stroke-linecap:round; stroke-width:0.25; stroke-dasharray:3,3;"/>
<line x1="15.000000" y1="173.000000" x2="346.900000" y2="173.000000"  style="stroke: black; stroke-linecap:round; stroke-width:0.25; stroke-dasharray:3,3;"/>
<line x1="346.900000" y1="173.000000" x2="346.900000" y2="15.000000"  style="stroke: black; stroke-linecap:round; stroke-width:0.25; stroke-dasharray:3,3;"/>
<line x1="15.000000" y1="15.000000" x2="20.000000" y2="15.000000"  style="stroke: black; stroke-linecap:round; stroke-width:0.25; stroke-dasharray:3,3;"/>
<line x1="29.675000" y1="15.000000" x2="346.900000" y2="15.000000"  style="stroke: black; stroke-linecap:round; stroke-width:0.25; stroke-dasharray:3,3;"/>
<text x="20.000000" y="17.000000" font-family="Arial" font-size="7">a</text>
<line x1="348.900000" y1="93.000000" x2="351.900000" y2="94.000000"  transform="rotate(0.000000,351.900000,94.000000)" style="stroke: black; stroke-width:0.25;"/>
<line x1="348.900000" y1="95.000000" x2="351.900000" y2="94.000000"  transform="rotate(0.000000,351.900000,94.000000)" style="stroke: black; stroke-width:0.25;"/>
<line x1="117.850000" y1="120.000000" x2="121.850000" y2="120.000000"  style="stroke:black; stroke-linecap:round; stroke-width:0.25;"/>
<line x1="121.850000" y1="120.000000" x2="189.900000" y2="120.000000"  style="stroke:black; stroke-linecap:round; stroke-width:0.25;"/>
<line x1="136.950000" y1="152.000000" x2="140.950000" y2="152.000000"  style="stroke:black; stroke-linecap:round; stroke-width:0.25;"/>
<line x1="140.950000" y1="152.000000" x2="229.900000" y2="152.000000"  style="stroke:black; stroke-linecap:round; stroke-width:0.25;"/>
<line x1="157.850000" y1="36.000000" x2="161.850000" y2="36.000000"  style="stroke:black; stroke-linecap:round; stroke-width:0.25;"/>
<line x1="161.850000" y1="36.000000" x2="269.900000" y2="36.000000"  style="stroke:black; stroke-linecap:round; stroke-width:0.25;"/>
<line x1="175.900000" y1="78.000000" x2="179.900000" y2="78.000000"  style="stroke:black; stroke-linecap:round; stroke-width:0.25;"/>
<line x1="179.900000" y1="78.000000" x2="189.900000" y2="78.000000"  style="stroke:black; stroke-linecap:round; stroke-width:0.25;"/>
<line x1="189.900000" y1="78.000000" x2="197.900000" y2="78.000000"  style="stroke:black; stroke-linecap:round; stroke-width:0.25;"/>
<line x1="189.900000" y1="98.000000" x2="197.900000" y2="98.000000"  style="stroke:black; stroke-linecap:round; stroke-width:0.25;"/>
<line x1="189.900000" y1="120.000000" x2="189.900000" y2="98.000000"  style="stroke:black; stroke-linecap:round; stroke-width:0.25;"/>
<line x1="189.900000" y1="120.000000" x2="189.900000" y2="120.000000"  style="stroke:black; stroke-linecap:round; stroke-width:0.25;"/>
<line x1="197.900000" y1="78.000000" x2="197.900000" y2="90.000000"  style="stroke:black; stroke-linecap:round; stroke-width:0.25;"/>
<line x1="197.900000" y1="90.000000" x2="197.900000" y2="90.000000"  style="stroke:black; stroke-linecap:round; stroke-width:0.25;"/>
<line x1="197.900000" y1="90.000000" x2="201.900000" y2="90.000000"  style="stroke:black; stroke-linecap:round; stroke-width:0.25;"/>
<line x1="197.900000" y1="98.000000" x2="201.900000" y2="98.000000"  style="stroke:black; stroke-linecap:round; stroke-width:0.25;"/>
<line x1="225.900000" y1="94.000000" x2="229.900000" y2="94.000000"  style="stroke:black; stroke-linecap:round; stroke-width:0.25;"/>
<line x1="229.900000" y1="114.000000" x2="237.900000" y2="114.000000"  style="stroke:black; stroke-linecap:round; stroke-width:0.25;"/>
<line x1="229.900000" y1="152.000000" x2="229.900000" y2="114.000000"  style="stroke:black; stroke-linecap:round; stroke-width:0.25;"/>
<line x1="229.900000" y1="152.000000" x2="229.900000" y2="152.000000"  style="stroke:black; stroke-linecap:round; stroke-width:0.25;"/>
<line x1="229.900000" y1="94.000000" x2="237.900000" y2="94.000000"  style="stroke:black; stroke-linecap:round; stroke-width:0.25;"/>
<line x1="237.900000" y1="94.000000" x2="237.900000" y2="106.000000"  style="stroke:black; stroke-linecap:round; stroke-width:0.25;"/>
<line x1="237.900000" y1="106.000000" x2="237.900000" y2="106.000000"  style="stroke:black; stroke-linecap:round; stroke-width:0.25;"/>
<line x1="237.900000" y1="106.000000" x2="241.900000" y2="106.000000"  style="stroke:black; stroke-linecap:round; stroke-width:0.25;"/>
<line x1="237.900000" y1="114.000000" x2="241.900000" y2="114.000000"  style="stroke:black; stroke-linecap:round; stroke-width:0.25;"/>
<line x1="265.900000" y1="110.000000" x2="269.900000" y2="110.000000"  style="stroke:black; stroke-linecap:round; stroke-width:0.25;"/>
<line x1="269.900000" y1="98.000000" x2="277.900000" y2="98.000000"  style="stroke:black; stroke-linecap:round; stroke-width:0.25;"/>
<line x1="269.900000" y1="110.000000" x2="269.900000" y2="98.000000"  style="stroke:black; stroke-linecap:round; stroke-width:0.25;"/>
<line x1="269.900000" y1="110.000000" x2="269.900000" y2="110.000000"  style="stroke:black; stroke-linecap:round; stroke-width:0.25;"/>
<line x1="269.900000" y1="36.000000" x2="277.900000" y2="36.000000"  style="stroke:black; stroke-linecap:round; stroke-width:0.25;"/>
<line x1="277.900000" y1="90.000000" x2="281.900000" y2="90.000000"  style="stroke:black; stroke-linecap:round; stroke-width:0.25;"/>
<line x1="277.900000" y1="98.000000" x2="281.900000" y2="98.000000"  style="stroke:black; stroke-linecap:round; stroke-width:0.25;"/>
<line x1="277.900000" y1="36.000000" x2="277.900000" y2="90.000000"  style="stroke:black; stroke-linecap:round; stroke-width:0.25;"/>
<line x1="277.900000" y1="90.000000" x2="277.900000" y2="90.000000"  style="stroke:black; stroke-linecap:round; stroke-width:0.25;"/>
<line x1="305.900000" y1="94.000000" x2="309.900000" y2="94.000000"  style="stroke:black; stroke-linecap:round; stroke-width:0.25;"/>
<line x1="309.900000" y1="94.000000" x2="309.900000" y2="94.000000"  style="stroke:black; stroke-linecap:round; stroke-width:0.25;"/>
<line x1="309.900000" y1="94.000000" x2="313.900000" y2="94.000000"  style="stroke:black; stroke-linecap:round; stroke-width:0.25;"/>
<line x1="337.900000" y1="94.000000" x2="341.900000" y2="94.000000"  style="stroke:black; stroke-linecap:round; stroke-width:0.25;"/>
<line x1="341.900000" y1="94.000000" x2="351.900000" y2="94.000000"  style="stroke:black; stroke-linecap:round; stroke-width:0.25;"/>
</svg>
