<?xml version="1.0"?>
<svg xmlns="http://www.w3.org/2000/svg" xmlns:xlink="http://www.w3.org/1999/xlink" viewBox="0 0 250.500000 88.000000" width="125.250000mm" height="44.000000mm" version="1.1">
<a xlink:href="process.svg">
<rect x="1.000000" y="1.000000" width="249.500000" height="87.000000" rx="0" ry="0" style="stroke:none;fill:#cccccc;"/>
<rect x="0.000000" y="0.000000" width="249.500000" height="87.000000" rx="0" ry="0" style="stroke:none;fill:#ffffff;"/>
</a>
<text x="10.000000" y="7.000000" font-family="Arial" font-size="7"></text>
<rect x="25.000000" y="33.000000" width="24.000000" height="24.000000" rx="0" ry="0" style="stroke:none;fill:#cccccc;"/>
<rect x="24.000000" y="32.000000" width="24.000000" height="24.000000" rx="0" ry="0" style="stroke:none;fill:#47945E;"/>
<text x="36.000000" y="46.000000" font-family="Arial" font-size="7" text-anchor="middle" fill="#FFFFFF">b</text>
<circle cx="26.000000" cy="34.000000" r="1"/>
<line x1="21.000000" y1="43.000000" x2="24.000000" y2="44.000000"  transform="rotate(0.000000,24.000000,44.000000)" style="stroke: black; stroke-width:0.25;"/>
<line x1="21.000000" y1="45.000000" x2="24.000000" y2="44.000000"  transform="rotate(0.000000,24.000000,44.000000)" style="stroke: black; stroke-width:0.25;"/>
<rect x="65.000000" y="33.000000" width="24.000000" height="24.000000" rx="0" ry="0" style="stroke:none;fill:#cccccc;"/>
<rect x="64.000000" y="32.000000" width="24.000000" height="24.000000" rx="0" ry="0" style="stroke:none;fill:#47945E;"/>
<text x="76.000000" y="46.000000" font-family="Arial" font-size="7" text-anchor="middle" fill="#FFFFFF">b</text>
<circle cx="66.000000" cy="34.000000" r="1"/>
<rect x="105.000000" y="37.000000" width="24.000000" height="24.000000" rx="0" ry="0" style="stroke:none;fill:#cccccc;"/>
<rect x="104.000000" y="36.000000" width="24.000000" height="24.000000" rx="0" ry="0" style="stroke:none;fill:#4B71A1;"/>
<text x="116.000000" y="50.000000" font-family="Arial" font-size="7" text-anchor="middle" fill="#FFFFFF">+</text>
<circle cx="106.000000" cy="38.000000" r="1"/>
<line x1="101.000000" y1="43.000000" x2="104.000000" y2="44.000000"  transform="rotate(0.000000,104.000000,44.000000)" style="stroke: black; stroke-width:0.25;"/>
<line x1="101.000000" y1="45.000000" x2="104.000000" y2="44.000000"  transform="rotate(0.000000,104.000000,44.000000)" style="stroke: black; stroke-width:0.25;"/>
<line x1="101.000000" y1="51.000000" x2="104.000000" y2="52.000000"  transform="rotate(0.000000,104.000000,52.000000)" style="stroke: black; stroke-width:0.25;"/>
<line x1="101.000000" y1="53.000000" x2="104.000000" y2="52.000000"  transform="rotate(0.000000,104.000000,52.000000)" style="stroke: black; stroke-width:0.25;"/>
<a xlink:href="FILTRO-0x2a23fe0.svg">
<rect x="155.000000" y="37.000000" width="64.500000" height="24.000000" rx="0" ry="0" style="stroke:none;fill:#cccccc;"/>
<rect x="154.000000" y="36.000000" width="64.500000" height="24.000000" rx="0" ry="0" style="stroke:none;fill:#003366;"/>
</a>
<a xlink:href="FILTRO-0x2a23fe0.svg">
<text x="186.250000" y="50.000000" font-family="Arial" font-size="7" text-anchor="middle" fill="#FFFFFF">FILTRO_2(_)(#2)</text>
</a>
<circle cx="156.000000" cy="38.000000" r="1"/>
<line x1="151.000000" y1="47.000000" x2="154.000000" y2="48.000000"  transform="rotate(0.000000,154.000000,48.000000)" style="stroke: black; stroke-width:0.25;"/>
<line x1="151.000000" y1="49.000000" x2="154.000000" y2="48.000000"  transform="rotate(0.000000,154.000000,48.000000)" style="stroke: black; stroke-width:0.25;"/>
<line x1="220.500000" y1="48.000000" x2="220.500000" y2="44.000000"  style="stroke:black; stroke-linecap:round; stroke-width:0.25;"/>
<line x1="220.500000" y1="44.000000" x2="224.500000" y2="44.000000"  style="stroke:black; stroke-linecap:round; stroke-width:0.25;"/>
<line x1="224.500000" y1="44.000000" x2="224.500000" y2="48.000000"  style="stroke:black; stroke-linecap:round; stroke-width:0.25;"/>
<line x1="15.000000" y1="15.000000" x2="15.000000" y2="73.000000"  style="stroke: black; stroke-linecap:round; stroke-width:0.25; stroke-dasharray:3,3;"/>
<line x1="15.000000" y1="73.000000" x2="235.500000" y2="73.000000"  style="stroke: black; stroke-linecap:round; stroke-width:0.25; stroke-dasharray:3,3;"/>
<line x1="235.500000" y1="73.000000" x2="235.500000" y2="15.000000"  style="stroke: black; stroke-linecap:round; stroke-width:0.25; stroke-dasharray:3,3;"/>
<line x1="15.000000" y1="15.000000" x2="20.000000" y2="15.000000"  style="stroke: black; stroke-linecap:round; stroke-width:0.25; stroke-dasharray:3,3;"/>
<line x1="52.250000" y1="15.000000" x2="235.500000" y2="15.000000"  style="stroke: black; stroke-linecap:round; stroke-width:0.25; stroke-dasharray:3,3;"/>
<text x="20.000000" y="17.000000" font-family="Arial" font-size="7">FILTRO_3</text>
<line x1="237.500000" y1="47.000000" x2="240.500000" y2="48.000000"  transform="rotate(0.000000,240.500000,48.000000)" style="stroke: black; stroke-width:0.25;"/>
<line x1="237.500000" y1="49.000000" x2="240.500000" y2="48.000000"  transform="rotate(0.000000,240.500000,48.000000)" style="stroke: black; stroke-width:0.25;"/>
<line x1="10.000000" y1="44.000000" x2="20.000000" y2="44.000000"  style="stroke:black; stroke-linecap:round; stroke-width:0.25;"/>
<line x1="20.000000" y1="44.000000" x2="24.000000" y2="44.000000"  style="stroke:black; stroke-linecap:round; stroke-width:0.25;"/>
<line x1="60.000000" y1="24.000000" x2="60.000000" y2="24.000000"  style="stroke:black; stroke-linecap:round; stroke-width:0.25;"/>
<line x1="60.000000" y1="24.000000" x2="60.000000" y2="64.000000"  style="stroke:black; stroke-linecap:round; stroke-width:0.25;"/>
<line x1="60.000000" y1="64.000000" x2="60.000000" y2="64.000000"  style="stroke:black; stroke-linecap:round; stroke-width:0.25;"/>
<line x1="60.000000" y1="64.000000" x2="76.000000" y2="64.000000"  style="stroke:black; stroke-linecap:round; stroke-width:0.25;"/>
<line x1="76.000000" y1="64.000000" x2="92.000000" y2="64.000000"  style="stroke:black; stroke-linecap:round; stroke-width:0.25;"/>
<line x1="88.000000" y1="44.000000" x2="92.000000" y2="44.000000"  style="stroke:black; stroke-linecap:round; stroke-width:0.25;"/>
<line x1="92.000000" y1="44.000000" x2="100.000000" y2="44.000000"  style="stroke:black; stroke-linecap:round; stroke-width:0.25;"/>
<line x1="92.000000" y1="52.000000" x2="100.000000" y2="52.000000"  style="stroke:black; stroke-linecap:round; stroke-width:0.25;"/>
<line x1="92.000000" y1="64.000000" x2="92.000000" y2="52.000000"  style="stroke:black; stroke-linecap:round; stroke-width:0.25;"/>
<line x1="92.000000" y1="64.000000" x2="92.000000" y2="64.000000"  style="stroke:black; stroke-linecap:round; stroke-width:0.25;"/>
<line x1="100.000000" y1="44.000000" x2="104.000000" y2="44.000000"  style="stroke:black; stroke-linecap:round; stroke-width:0.25;"/>
<line x1="100.000000" y1="52.000000" x2="104.000000" y2="52.000000"  style="stroke:black; stroke-linecap:round; stroke-width:0.25;"/>
<line x1="128.000000" y1="48.000000" x2="132.000000" y2="48.000000"  style="stroke:black; stroke-linecap:round; stroke-width:0.25;"/>
<line x1="132.000000" y1="48.000000" x2="150.000000" y2="48.000000"  style="stroke:black; stroke-linecap:round; stroke-width:0.25;"/>
<line x1="141.250000" y1="24.000000" x2="60.000000" y2="24.000000"  style="stroke:black; stroke-linecap:round; stroke-width:0.25;"/>
<line x1="150.000000" y1="48.000000" x2="154.000000" y2="48.000000"  style="stroke:black; stroke-linecap:round; stroke-width:0.25;"/>
<line x1="218.500000" y1="48.000000" x2="222.500000" y2="48.000000"  style="stroke:black; stroke-linecap:round; stroke-width:0.25;"/>
<line x1="222.500000" y1="24.000000" x2="141.250000" y2="24.000000"  style="stroke:black; stroke-linecap:round; stroke-width:0.25;"/>
<line x1="222.500000" y1="24.000000" x2="222.500000" y2="24.000000"  style="stroke:black; stroke-linecap:round; stroke-width:0.25;"/>
<line x1="222.500000" y1="44.000000" x2="222.500000" y2="24.000000"  style="stroke:black; stroke-linecap:round; stroke-width:0.25;"/>
<line x1="222.500000" y1="48.000000" x2="224.500000" y2="48.000000"  style="stroke:black; stroke-linecap:round; stroke-width:0.25;"/>
<line x1="224.500000" y1="48.000000" x2="230.500000" y2="48.000000"  style="stroke:black; stroke-linecap:round; stroke-width:0.25;"/>
<line x1="230.500000" y1="48.000000" x2="240.500000" y2="48.000000"  style="stroke:black; stroke-linecap:round; stroke-width:0.25;"/>
</svg>
