<?xml version="1.0"?>
<svg xmlns="http://www.w3.org/2000/svg" xmlns:xlink="http://www.w3.org/1999/xlink" viewBox="0 0 453.700000 148.000000" width="226.850000mm" height="74.000000mm" version="1.1">
<rect x="1.000000" y="1.000000" width="452.700000" height="147.000000" rx="0" ry="0" style="stroke:none;fill:#cccccc;"/>
<rect x="0.000000" y="0.000000" width="452.700000" height="147.000000" rx="0" ry="0" style="stroke:none;fill:#ffffff;"/>
<text x="10.000000" y="7.000000" font-family="Arial" font-size="7"></text>
<rect x="25.000000" y="63.000000" width="24.000000" height="24.000000" rx="0" ry="0" style="stroke:none;fill:#cccccc;"/>
<rect x="24.000000" y="62.000000" width="24.000000" height="24.000000" rx="0" ry="0" style="stroke:none;fill:#47945E;"/>
<text x="36.000000" y="76.000000" font-family="Arial" font-size="7" text-anchor="middle" fill="#FFFFFF">x</text>
<circle cx="26.000000" cy="64.000000" r="1"/>
<line x1="21.000000" y1="73.000000" x2="24.000000" y2="74.000000"  transform="rotate(0.000000,24.000000,74.000000)" style="stroke: black; stroke-width:0.25;"/>
<line x1="21.000000" y1="75.000000" x2="24.000000" y2="74.000000"  transform="rotate(0.000000,24.000000,74.000000)" style="stroke: black; stroke-width:0.25;"/>
<rect x="73.000000" y="63.000000" width="24.000000" height="24.000000" rx="0" ry="0" style="stroke:none;fill:#cccccc;"/>
<rect x="72.000000" y="62.000000" width="24.000000" height="24.000000" rx="0" ry="0" style="stroke:none;fill:#47945E;"/>
<text x="84.000000" y="76.000000" font-family="Arial" font-size="7" text-anchor="middle" fill="#FFFFFF">x</text>
<circle cx="74.000000" cy="64.000000" r="1"/>
<rect x="105.000000" y="63.000000" width="24.000000" height="24.000000" rx="0" ry="0" style="stroke:none;fill:#cccccc;"/>
<rect x="104.000000" y="62.000000" width="24.000000" height="24.000000" rx="0" ry="0" style="stroke:none;fill:#4B71A1;"/>
<text x="116.000000" y="76.000000" font-family="Arial" font-size="7" text-anchor="middle" fill="#FFFFFF">abs</text>
<circle cx="106.000000" cy="64.000000" r="1"/>
<line x1="101.000000" y1="73.000000" x2="104.000000" y2="74.000000"  transform="rotate(0.000000,104.000000,74.000000)" style="stroke: black; stroke-width:0.25;"/>
<line x1="101.000000" y1="75.000000" x2="104.000000" y2="74.000000"  transform="rotate(0.000000,104.000000,74.000000)" style="stroke: black; stroke-width:0.25;"/>
<rect x="145.000000" y="67.000000" width="24.000000" height="24.000000" rx="0" ry="0" style="stroke:none;fill:#cccccc;"/>
<rect x="144.000000" y="66.000000" width="24.000000" height="24.000000" rx="0" ry="0" style="stroke:none;fill:#4B71A1;"/>
<text x="156.000000" y="80.000000" font-family="Arial" font-size="7" text-anchor="middle" fill="#FFFFFF">-</text>
<circle cx="146.000000" cy="68.000000" r="1"/>
<line x1="141.000000" y1="73.000000" x2="144.000000" y2="74.000000"  transform="rotate(0.000000,144.000000,74.000000)" style="stroke: black; stroke-width:0.25;"/>
<line x1="141.000000" y1="75.000000" x2="144.000000" y2="74.000000"  transform="rotate(0.000000,144.000000,74.000000)" style="stroke: black; stroke-width:0.25;"/>
<line x1="141.000000" y1="81.000000" x2="144.000000" y2="82.000000"  transform="rotate(0.000000,144.000000,82.000000)" style="stroke: black; stroke-width:0.25;"/>
<line x1="141.000000" y1="83.000000" x2="144.000000" y2="82.000000"  transform="rotate(0.000000,144.000000,82.000000)" style="stroke: black; stroke-width:0.25;"/>
<a xlink:href="AT-0x2a19000.svg">
<rect x="242.000000" y="41.000000" width="24.000000" height="24.000000" rx="0" ry="0" style="stroke:none;fill:#cccccc;"/>
<rect x="241.000000" y="40.000000" width="24.000000" height="24.000000" rx="0" ry="0" style="stroke:none;fill:#003366;"/>
</a>
<a xlink:href="AT-0x2a19000.svg">
<text x="253.000000" y="54.000000" font-family="Arial" font-size="7" text-anchor="middle" fill="#FFFFFF">AT</text>
</a>
<circle cx="243.000000" cy="42.000000" r="1"/>
<rect x="222.000000" y="91.000000" width="24.000000" height="24.000000" rx="0" ry="0" style="stroke:none;fill:#cccccc;"/>
<rect x="221.000000" y="90.000000" width="24.000000" height="24.000000" rx="0" ry="0" style="stroke:none;fill:#f44800;"/>
<text x="233.000000" y="104.000000" font-family="Arial" font-size="7" text-anchor="middle" fill="#FFFFFF">0</text>
<circle cx="223.000000" cy="92.000000" r="1"/>
<rect x="262.000000" y="87.000000" width="24.000000" height="24.000000" rx="0" ry="0" style="stroke:none;fill:#cccccc;"/>
<rect x="261.000000" y="86.000000" width="24.000000" height="24.000000" rx="0" ry="0" style="stroke:none;fill:#4B71A1;"/>
<text x="273.000000" y="100.000000" font-family="Arial" font-size="7" text-anchor="middle" fill="#FFFFFF">&gt;=</text>
<circle cx="263.000000" cy="88.000000" r="1"/>
<line x1="258.000000" y1="93.000000" x2="261.000000" y2="94.000000"  transform="rotate(0.000000,261.000000,94.000000)" style="stroke: black; stroke-width:0.25;"/>
<line x1="258.000000" y1="95.000000" x2="261.000000" y2="94.000000"  transform="rotate(0.000000,261.000000,94.000000)" style="stroke: black; stroke-width:0.25;"/>
<line x1="258.000000" y1="101.000000" x2="261.000000" y2="102.000000"  transform="rotate(0.000000,261.000000,102.000000)" style="stroke: black; stroke-width:0.25;"/>
<line x1="258.000000" y1="103.000000" x2="261.000000" y2="102.000000"  transform="rotate(0.000000,261.000000,102.000000)" style="stroke: black; stroke-width:0.25;"/>
<line x1="212.000000" y1="73.000000" x2="212.000000" y2="123.000000"  style="stroke: black; stroke-linecap:round; stroke-width:0.25; stroke-dasharray:3,3;"/>
<line x1="212.000000" y1="123.000000" x2="294.000000" y2="123.000000"  style="stroke: black; stroke-linecap:round; stroke-width:0.25; stroke-dasharray:3,3;"/>
<line x1="294.000000" y1="123.000000" x2="294.000000" y2="73.000000"  style="stroke: black; stroke-linecap:round; stroke-width:0.25; stroke-dasharray:3,3;"/>
<line x1="212.000000" y1="73.000000" x2="217.000000" y2="73.000000"  style="stroke: black; stroke-linecap:round; stroke-width:0.25; stroke-dasharray:3,3;"/>
<line x1="249.250000" y1="73.000000" x2="294.000000" y2="73.000000"  style="stroke: black; stroke-linecap:round; stroke-width:0.25; stroke-dasharray:3,3;"/>
<text x="217.000000" y="75.000000" font-family="Arial" font-size="7">comp1(_)</text>
<rect x="312.000000" y="71.000000" width="24.000000" height="24.000000" rx="0" ry="0" style="stroke:none;fill:#cccccc;"/>
<rect x="311.000000" y="70.000000" width="24.000000" height="24.000000" rx="0" ry="0" style="stroke:none;fill:#4B71A1;"/>
<text x="323.000000" y="84.000000" font-family="Arial" font-size="7" text-anchor="middle" fill="#FFFFFF">*</text>
<circle cx="313.000000" cy="72.000000" r="1"/>
<line x1="308.000000" y1="77.000000" x2="311.000000" y2="78.000000"  transform="rotate(0.000000,311.000000,78.000000)" style="stroke: black; stroke-width:0.25;"/>
<line x1="308.000000" y1="79.000000" x2="311.000000" y2="78.000000"  transform="rotate(0.000000,311.000000,78.000000)" style="stroke: black; stroke-width:0.25;"/>
<line x1="308.000000" y1="85.000000" x2="311.000000" y2="86.000000"  transform="rotate(0.000000,311.000000,86.000000)" style="stroke: black; stroke-width:0.25;"/>
<line x1="308.000000" y1="87.000000" x2="311.000000" y2="86.000000"  transform="rotate(0.000000,311.000000,86.000000)" style="stroke: black; stroke-width:0.25;"/>
<rect x="352.000000" y="67.000000" width="24.000000" height="24.000000" rx="0" ry="0" style="stroke:none;fill:#cccccc;"/>
<rect x="351.000000" y="66.000000" width="24.000000" height="24.000000" rx="0" ry="0" style="stroke:none;fill:#4B71A1;"/>
<text x="363.000000" y="80.000000" font-family="Arial" font-size="7" text-anchor="middle" fill="#FFFFFF">*</text>
<circle cx="353.000000" cy="68.000000" r="1"/>
<line x1="348.000000" y1="73.000000" x2="351.000000" y2="74.000000"  transform="rotate(0.000000,351.000000,74.000000)" style="stroke: black; stroke-width:0.25;"/>
<line x1="348.000000" y1="75.000000" x2="351.000000" y2="74.000000"  transform="rotate(0.000000,351.000000,74.000000)" style="stroke: black; stroke-width:0.25;"/>
<line x1="348.000000" y1="81.000000" x2="351.000000" y2="82.000000"  transform="rotate(0.000000,351.000000,82.000000)" style="stroke: black; stroke-width:0.25;"/>
<line x1="348.000000" y1="83.000000" x2="351.000000" y2="82.000000"  transform="rotate(0.000000,351.000000,82.000000)" style="stroke: black; stroke-width:0.25;"/>
<a xlink:href="FILTRO-0x2a240a0.svg">
<rect x="384.000000" y="67.000000" width="38.700000" height="24.000000" rx="0" ry="0" style="stroke:none;fill:#cccccc;"/>
<rect x="383.000000" y="66.000000" width="38.700000" height="24.000000" rx="0" ry="0" style="stroke:none;fill:#003366;"/>
</a>
<a xlink:href="FILTRO-0x2a240a0.svg">
<text x="402.350000" y="80.000000" font-family="Arial" font-size="7" text-anchor="middle" fill="#FFFFFF">FILTRO_3</text>
</a>
<circle cx="385.000000" cy="68.000000" r="1"/>
<line x1="380.000000" y1="77.000000" x2="383.000000" y2="78.000000"  transform="rotate(0.000000,383.000000,78.000000)" style="stroke: black; stroke-width:0.25;"/>
<line x1="380.000000" y1="79.000000" x2="383.000000" y2="78.000000"  transform="rotate(0.000000,383.000000,78.000000)" style="stroke: black; stroke-width:0.25;"/>
<line x1="423.700000" y1="78.000000" x2="423.700000" y2="74.000000"  style="stroke:black; stroke-linecap:round; stroke-width:0.25;"/>
<line x1="423.700000" y1="74.000000" x2="427.700000" y2="74.000000"  style="stroke:black; stroke-linecap:round; stroke-width:0.25;"/>
<line x1="427.700000" y1="74.000000" x2="427.700000" y2="78.000000"  style="stroke:black; stroke-linecap:round; stroke-width:0.25;"/>
<line x1="15.000000" y1="15.000000" x2="15.000000" y2="133.000000"  style="stroke: black; stroke-linecap:round; stroke-width:0.25; stroke-dasharray:3,3;"/>
<line x1="15.000000" y1="133.000000" x2="438.700000" y2="133.000000"  style="stroke: black; stroke-linecap:round; stroke-width:0.25; stroke-dasharray:3,3;"/>
<line x1="438.700000" y1="133.000000" x2="438.700000" y2="15.000000"  style="stroke: black; stroke-linecap:round; stroke-width:0.25; stroke-dasharray:3,3;"/>
<line x1="15.000000" y1="15.000000" x2="20.000000" y2="15.000000"  style="stroke: black; stroke-linecap:round; stroke-width:0.25; stroke-dasharray:3,3;"/>
<line x1="49.025000" y1="15.000000" x2="438.700000" y2="15.000000"  style="stroke: black; stroke-linecap:round; stroke-width:0.25; stroke-dasharray:3,3;"/>
<text x="20.000000" y="17.000000" font-family="Arial" font-size="7">process</text>
<line x1="440.700000" y1="77.000000" x2="443.700000" y2="78.000000"  transform="rotate(0.000000,443.700000,78.000000)" style="stroke: black; stroke-width:0.25;"/>
<line x1="440.700000" y1="79.000000" x2="443.700000" y2="78.000000"  transform="rotate(0.000000,443.700000,78.000000)" style="stroke: black; stroke-width:0.25;"/>
<line x1="10.000000" y1="74.000000" x2="20.000000" y2="74.000000"  style="stroke:black; stroke-linecap:round; stroke-width:0.25;"/>
<line x1="20.000000" y1="74.000000" x2="24.000000" y2="74.000000"  style="stroke:black; stroke-linecap:round; stroke-width:0.25;"/>
<line x1="60.000000" y1="24.000000" x2="60.000000" y2="24.000000"  style="stroke:black; stroke-linecap:round; stroke-width:0.25;"/>
<line x1="60.000000" y1="24.000000" x2="60.000000" y2="78.000000"  style="stroke:black; stroke-linecap:round; stroke-width:0.25;"/>
<line x1="60.000000" y1="78.000000" x2="60.000000" y2="78.000000"  style="stroke:black; stroke-linecap:round; stroke-width:0.25;"/>
<line x1="60.000000" y1="78.000000" x2="68.000000" y2="78.000000"  style="stroke:black; stroke-linecap:round; stroke-width:0.25;"/>
<line x1="68.000000" y1="78.000000" x2="68.000000" y2="94.000000"  style="stroke:black; stroke-linecap:round; stroke-width:0.25;"/>
<line x1="68.000000" y1="94.000000" x2="68.000000" y2="94.000000"  style="stroke:black; stroke-linecap:round; stroke-width:0.25;"/>
<line x1="68.000000" y1="94.000000" x2="100.000000" y2="94.000000"  style="stroke:black; stroke-linecap:round; stroke-width:0.25;"/>
<line x1="96.000000" y1="74.000000" x2="100.000000" y2="74.000000"  style="stroke:black; stroke-linecap:round; stroke-width:0.25;"/>
<line x1="100.000000" y1="74.000000" x2="100.000000" y2="74.000000"  style="stroke:black; stroke-linecap:round; stroke-width:0.25;"/>
<line x1="100.000000" y1="74.000000" x2="104.000000" y2="74.000000"  style="stroke:black; stroke-linecap:round; stroke-width:0.25;"/>
<line x1="100.000000" y1="94.000000" x2="132.000000" y2="94.000000"  style="stroke:black; stroke-linecap:round; stroke-width:0.25;"/>
<line x1="128.000000" y1="74.000000" x2="132.000000" y2="74.000000"  style="stroke:black; stroke-linecap:round; stroke-width:0.25;"/>
<line x1="132.000000" y1="74.000000" x2="140.000000" y2="74.000000"  style="stroke:black; stroke-linecap:round; stroke-width:0.25;"/>
<line x1="132.000000" y1="82.000000" x2="140.000000" y2="82.000000"  style="stroke:black; stroke-linecap:round; stroke-width:0.25;"/>
<line x1="132.000000" y1="94.000000" x2="132.000000" y2="82.000000"  style="stroke:black; stroke-linecap:round; stroke-width:0.25;"/>
<line x1="132.000000" y1="94.000000" x2="132.000000" y2="94.000000"  style="stroke:black; stroke-linecap:round; stroke-width:0.25;"/>
<line x1="140.000000" y1="74.000000" x2="144.000000" y2="74.000000"  style="stroke:black; stroke-linecap:round; stroke-width:0.25;"/>
<line x1="140.000000" y1="82.000000" x2="144.000000" y2="82.000000"  style="stroke:black; stroke-linecap:round; stroke-width:0.25;"/>
<line x1="168.000000" y1="78.000000" x2="172.000000" y2="78.000000"  style="stroke:black; stroke-linecap:round; stroke-width:0.25;"/>
<line x1="172.000000" y1="78.000000" x2="207.000000" y2="32.000000"  style="stroke:black; stroke-linecap:round; stroke-width:0.25;"/>
<line x1="172.000000" y1="78.000000" x2="207.000000" y2="82.000000"  style="stroke:black; stroke-linecap:round; stroke-width:0.25;"/>
<line x1="207.000000" y1="32.000000" x2="273.000000" y2="32.000000"  style="stroke:black; stroke-linecap:round; stroke-width:0.25;"/>
<line x1="207.000000" y1="82.000000" x2="217.000000" y2="82.000000"  style="stroke:black; stroke-linecap:round; stroke-width:0.25;"/>
<line x1="217.000000" y1="82.000000" x2="233.000000" y2="82.000000"  style="stroke:black; stroke-linecap:round; stroke-width:0.25;"/>
<line x1="233.000000" y1="82.000000" x2="249.000000" y2="82.000000"  style="stroke:black; stroke-linecap:round; stroke-width:0.25;"/>
<line x1="242.850000" y1="24.000000" x2="60.000000" y2="24.000000"  style="stroke:black; stroke-linecap:round; stroke-width:0.25;"/>
<line x1="245.000000" y1="102.000000" x2="249.000000" y2="102.000000"  style="stroke:black; stroke-linecap:round; stroke-width:0.25;"/>
<line x1="249.000000" y1="82.000000" x2="257.000000" y2="82.000000"  style="stroke:black; stroke-linecap:round; stroke-width:0.25;"/>
<line x1="249.000000" y1="102.000000" x2="257.000000" y2="102.000000"  style="stroke:black; stroke-linecap:round; stroke-width:0.25;"/>
<line x1="257.000000" y1="82.000000" x2="257.000000" y2="94.000000"  style="stroke:black; stroke-linecap:round; stroke-width:0.25;"/>
<line x1="257.000000" y1="94.000000" x2="257.000000" y2="94.000000"  style="stroke:black; stroke-linecap:round; stroke-width:0.25;"/>
<line x1="257.000000" y1="94.000000" x2="261.000000" y2="94.000000"  style="stroke:black; stroke-linecap:round; stroke-width:0.25;"/>
<line x1="257.000000" y1="102.000000" x2="261.000000" y2="102.000000"  style="stroke:black; stroke-linecap:round; stroke-width:0.25;"/>
<line x1="265.000000" y1="52.000000" x2="269.000000" y2="52.000000"  style="stroke:black; stroke-linecap:round; stroke-width:0.25;"/>
<line x1="269.000000" y1="52.000000" x2="299.000000" y2="52.000000"  style="stroke:black; stroke-linecap:round; stroke-width:0.25;"/>
<line x1="273.000000" y1="32.000000" x2="339.000000" y2="32.000000"  style="stroke:black; stroke-linecap:round; stroke-width:0.25;"/>
<line x1="285.000000" y1="98.000000" x2="289.000000" y2="98.000000"  style="stroke:black; stroke-linecap:round; stroke-width:0.25;"/>
<line x1="289.000000" y1="98.000000" x2="299.000000" y2="98.000000"  style="stroke:black; stroke-linecap:round; stroke-width:0.25;"/>
<line x1="299.000000" y1="52.000000" x2="307.000000" y2="52.000000"  style="stroke:black; stroke-linecap:round; stroke-width:0.25;"/>
<line x1="299.000000" y1="86.000000" x2="307.000000" y2="86.000000"  style="stroke:black; stroke-linecap:round; stroke-width:0.25;"/>
<line x1="299.000000" y1="98.000000" x2="299.000000" y2="86.000000"  style="stroke:black; stroke-linecap:round; stroke-width:0.25;"/>
<line x1="299.000000" y1="98.000000" x2="299.000000" y2="98.000000"  style="stroke:black; stroke-linecap:round; stroke-width:0.25;"/>
<line x1="307.000000" y1="52.000000" x2="307.000000" y2="78.000000"  style="stroke:black; stroke-linecap:round; stroke-width:0.25;"/>
<line x1="307.000000" y1="78.000000" x2="307.000000" y2="78.000000"  style="stroke:black; stroke-linecap:round; stroke-width:0.25;"/>
<line x1="307.000000" y1="78.000000" x2="311.000000" y2="78.000000"  style="stroke:black; stroke-linecap:round; stroke-width:0.25;"/>
<line x1="307.000000" y1="86.000000" x2="311.000000" y2="86.000000"  style="stroke:black; stroke-linecap:round; stroke-width:0.25;"/>
<line x1="335.000000" y1="82.000000" x2="339.000000" y2="82.000000"  style="stroke:black; stroke-linecap:round; stroke-width:0.25;"/>
<line x1="339.000000" y1="32.000000" x2="347.000000" y2="32.000000"  style="stroke:black; stroke-linecap:round; stroke-width:0.25;"/>
<line x1="339.000000" y1="82.000000" x2="347.000000" y2="82.000000"  style="stroke:black; stroke-linecap:round; stroke-width:0.25;"/>
<line x1="347.000000" y1="32.000000" x2="347.000000" y2="74.000000"  style="stroke:black; stroke-linecap:round; stroke-width:0.25;"/>
<line x1="347.000000" y1="74.000000" x2="347.000000" y2="74.000000"  style="stroke:black; stroke-linecap:round; stroke-width:0.25;"/>
<line x1="347.000000" y1="74.000000" x2="351.000000" y2="74.000000"  style="stroke:black; stroke-linecap:round; stroke-width:0.25;"/>
<line x1="347.000000" y1="82.000000" x2="351.000000" y2="82.000000"  style="stroke:black; stroke-linecap:round; stroke-width:0.25;"/>
<line x1="375.000000" y1="78.000000" x2="379.000000" y2="78.000000"  style="stroke:black; stroke-linecap:round; stroke-width:0.25;"/>
<line x1="379.000000" y1="78.000000" x2="379.000000" y2="78.000000"  style="stroke:black; stroke-linecap:round; stroke-width:0.25;"/>
<line x1="379.000000" y1="78.000000" x2="383.000000" y2="78.000000"  style="stroke:black; stroke-linecap:round; stroke-width:0.25;"/>
<line x1="421.700000" y1="78.000000" x2="425.700000" y2="78.000000"  style="stroke:black; stroke-linecap:round; stroke-width:0.25;"/>
<line x1="425.700000" y1="24.000000" x2="242.850000" y2="24.000000"  style="stroke:black; stroke-linecap:round; stroke-width:0.25;"/>
<line x1="425.700000" y1="24.000000" x2="425.700000" y2="24.000000"  style="stroke:black; stroke-linecap:round; stroke-width:0.25;"/>
<line x1="425.700000" y1="74.000000" x2="425.700000" y2="24.000000"  style="stroke:black; stroke-linecap:round; stroke-width:0.25;"/>
<line x1="425.700000" y1="78.000000" x2="427.700000" y2="78.000000"  style="stroke:black; stroke-linecap:round; stroke-width:0.25;"/>
<line x1="427.700000" y1="78.000000" x2="433.700000" y2="78.000000"  style="stroke:black; stroke-linecap:round; stroke-width:0.25;"/>
<line x1="433.700000" y1="78.000000" x2="443.700000" y2="78.000000"  style="stroke:black; stroke-linecap:round; stroke-width:0.25;"/>
</svg>
